<svg width="40" height="40" viewBox="0 0 40 40" fill="none" xmlns="http://www.w3.org/2000/svg">
<path d="M12.7296 17.2406C12.6921 18.4203 13.2816 18.9427 13.2962 19.2745C13.2893 19.342 13.2663 19.4069 13.2291 19.4637C13.192 19.5205 13.1418 19.5676 13.0827 19.601L12.416 20.0677C12.3297 20.1282 12.228 20.1628 12.1228 20.1677C12.1004 20.1666 11.6962 20.263 11.0561 18.8339C10.6656 19.3213 10.1687 19.713 9.60354 19.9788C9.03833 20.2447 8.41979 20.3777 7.79526 20.3677C6.94736 20.414 4.64948 19.8864 4.76771 17.4401C4.6849 15.4464 6.54164 14.2079 8.46192 14.3126C8.8317 14.3136 9.5869 14.3318 10.9093 14.6391V13.8256C11.0494 12.4475 10.1437 11.3782 8.57546 11.5387C8.45046 11.5392 7.56506 11.5126 6.188 12.0652C5.80467 12.2413 5.75571 12.2121 5.62811 12.2121C5.24218 12.2121 5.40103 11.0934 5.47499 10.9517C5.74634 10.6184 7.34267 9.99598 8.90931 10.0048C9.95682 9.91219 10.9987 10.2355 11.8098 10.9048C12.1395 11.2736 12.391 11.7054 12.5492 12.1741C12.7074 12.6428 12.7689 13.1387 12.7301 13.6319L12.7296 17.2406V17.2406ZM8.22859 18.9276C9.91762 18.9031 10.6327 17.8875 10.7957 17.3406C10.9239 16.8172 10.9025 16.486 10.9025 15.9136C10.3989 15.7928 9.67388 15.661 8.84212 15.6599C8.05307 15.6006 6.61195 15.9532 6.6682 17.3401C6.60362 18.2146 7.24736 18.9755 8.22859 18.9276V18.9276ZM17.1305 20.1281C16.7212 20.1656 16.5305 19.875 16.4701 19.588L13.8764 11.0126C13.8259 10.8678 13.7926 10.7184 13.7764 10.5658C13.7668 10.5028 13.7826 10.4387 13.8203 10.3874C13.858 10.3362 13.9145 10.302 13.9775 10.2923C13.99 10.2902 13.8665 10.2923 15.1363 10.2923C15.5936 10.2465 15.7425 10.6064 15.7899 10.8324L17.6503 18.1672L19.3774 10.8324C19.405 10.6647 19.5305 10.2559 20.044 10.2991H20.9378C21.0508 10.2897 21.5164 10.2731 21.5982 10.8392L23.3388 18.2677L25.259 10.8392C25.284 10.7257 25.4007 10.247 25.9194 10.2991H26.9465C26.9908 10.2923 27.2668 10.2569 27.2199 10.746C27.1975 10.8423 27.3975 10.1908 24.4726 19.5948C24.4127 19.8818 24.2216 20.1724 23.8122 20.1349H22.8388C22.269 20.1948 22.1872 19.6318 22.1784 19.575L20.4513 12.4329L18.744 19.5677C18.7357 19.6245 18.6539 20.1875 18.0836 20.1276H17.1305V20.1281ZM31.374 20.4213C31.0678 20.4218 29.6074 20.4057 28.3866 19.7812C28.265 19.7297 28.1614 19.6433 28.089 19.5329C28.0166 19.4224 27.9786 19.293 27.9798 19.1609V18.601C27.9798 18.1609 28.3027 18.2417 28.4397 18.2943C28.9626 18.5057 29.298 18.6661 29.9402 18.7943C31.849 19.1865 32.6886 18.6745 32.8943 18.5609C33.5792 18.1542 33.6334 17.2235 33.1678 16.7407C32.6219 16.2829 32.3615 16.2657 30.4006 15.6469C30.159 15.5797 28.1246 14.9381 28.1199 12.9199C28.0882 11.4491 29.4246 9.99389 31.7407 10.0059C32.4006 10.0054 34.1589 10.221 34.6349 10.8194C34.7052 10.9283 34.7401 11.0564 34.7349 11.1861V11.7126C34.7349 11.9439 34.6506 12.0595 34.4813 12.0595C34.0797 12.0147 33.3672 11.4777 31.9209 11.4996C31.5621 11.4808 29.8433 11.547 29.9204 12.8001C29.898 13.7876 31.3063 14.1579 31.4673 14.2006C33.3662 14.7719 34.0011 14.8667 34.7547 15.7412C35.6474 16.9 35.1662 18.2568 34.9813 18.6286C33.9875 20.5812 31.4178 20.4224 31.374 20.4213V20.4213ZM33.4678 25.8827C29.8204 28.5764 24.5257 30.0102 20.005 30.0102C13.9051 30.0505 8.01078 27.8075 3.48075 23.7223C3.14065 23.4155 3.44065 22.9952 3.85418 23.2291C8.87934 26.1036 14.5689 27.614 20.3581 27.6103C24.6813 27.5871 28.9574 26.7101 32.9407 25.0296C33.5542 24.7692 34.0745 25.4358 33.4678 25.8827V25.8827ZM34.988 24.1489C34.5214 23.5489 31.9006 23.8687 30.7272 24.0088C30.3735 24.0489 30.3136 23.7421 30.634 23.5155C32.7209 22.0484 36.1484 22.4687 36.5422 22.9619C36.9354 23.4551 36.4354 26.8895 34.4818 28.53C34.1818 28.7837 33.8948 28.6498 34.0282 28.3165C34.4677 27.2098 35.4547 24.7494 34.988 24.1489Z" fill="white"/>
</svg>
