<svg width="40" height="40" viewBox="0 0 40 40" fill="none" xmlns="http://www.w3.org/2000/svg">
<path d="M25.5582 14.4467C27.0319 14.4467 28.4453 13.8612 29.4873 12.8192C30.5294 11.7771 31.1148 10.3637 31.1148 8.89001C31.1148 7.4163 30.5294 6.00295 29.4873 4.96088C28.4453 3.9188 27.0319 3.33337 25.5582 3.33337L14.4449 3.33337C12.9721 3.33337 11.5595 3.91846 10.5181 4.95992C9.47661 6.00138 8.89152 7.41391 8.89152 8.88676C8.89152 10.3596 9.47661 11.7721 10.5181 12.8136C11.5595 13.8551 12.9721 14.4401 14.4449 14.4401C12.9712 14.4401 11.5578 15.0256 10.5158 16.0676C9.4737 17.1097 8.88827 18.5231 8.88827 19.9968C8.88827 21.4705 9.4737 22.8839 10.5158 23.9259C11.5578 24.968 12.9712 25.5534 14.4449 25.5534C13.3459 25.5528 12.2714 25.878 11.3573 26.4881C10.4431 27.0981 9.7304 27.9655 9.30923 28.9806C8.88807 29.9957 8.77737 31.1129 8.99115 32.1909C9.20492 33.2689 9.73356 34.2593 10.5102 35.0369C11.2869 35.8145 12.2767 36.3443 13.3544 36.5593C14.4322 36.7743 15.5495 36.665 16.5651 36.245C17.5807 35.825 18.4489 35.1133 19.06 34.1999C19.6711 33.2865 19.9976 32.2123 19.9983 31.1133V14.4467H25.5582ZM25.5582 14.4467C24.4598 14.4467 23.3861 14.7724 22.4729 15.3826C21.5596 15.9928 20.8479 16.8601 20.4275 17.8749C20.0072 18.8896 19.8972 20.0062 20.1115 21.0835C20.3258 22.1607 20.8547 23.1502 21.6314 23.9269C22.408 24.7035 23.3975 25.2324 24.4748 25.4467C25.552 25.661 26.6686 25.551 27.6834 25.1307C28.6981 24.7104 29.5654 23.9986 30.1757 23.0853C30.7859 22.1721 31.1116 21.0984 31.1116 20C31.1114 18.5272 30.5263 17.1148 29.4848 16.0734C28.4434 15.032 27.031 14.4468 25.5582 14.4467Z" fill="white"/>
</svg>
