<svg width="40" height="40" viewBox="0 0 40 40" fill="none" xmlns="http://www.w3.org/2000/svg">
<path d="M10.8176 25.8215C14.4315 26.0678 15.2038 25.9785 15.2038 26.7099C15.2038 28.198 10.3266 28.2024 10.3266 26.823C10.3273 26.4442 10.5713 26.1236 10.8176 25.8215V25.8215ZM12.8972 17.1429C10.4947 17.1429 10.3861 20.4517 12.8414 20.4517C15.2603 20.4517 15.2008 17.1429 12.8972 17.1429V17.1429ZM36.6666 6.9048V33.0953C36.6666 34.0425 36.2903 34.9509 35.6205 35.6207C34.9508 36.2904 34.0424 36.6667 33.0952 36.6667H6.90468C5.95748 36.6667 5.04907 36.2904 4.3793 35.6207C3.70953 34.9509 3.33325 34.0425 3.33325 33.0953L3.33325 6.9048C3.33325 5.9576 3.70953 5.04919 4.3793 4.37942C5.04907 3.70965 5.95748 3.33337 6.90468 3.33337H33.0952C34.0424 3.33337 34.9508 3.70965 35.6205 4.37942C36.2903 5.04919 36.6666 5.9576 36.6666 6.9048V6.9048ZM19.7767 12.0618C19.7767 13.1399 20.4002 13.7642 21.4776 13.7642C22.5743 13.7642 23.1986 13.1399 23.1986 12.0618C23.1986 10.9837 22.5758 10.4018 21.4791 10.4018C20.4017 10.4018 19.7767 10.9852 19.7767 12.0618ZM18.1532 15.4614H14.4664C12.6063 14.974 8.39798 15.1005 8.39798 18.9398C8.39798 20.3386 9.09739 21.3207 10.0237 21.7753C8.85632 22.8445 8.30349 23.3483 8.30349 24.0625C8.30349 24.5737 8.51108 25.0462 9.13534 25.3096C8.47313 25.9346 8.09367 26.3869 8.09367 27.2381C8.09516 28.7314 9.39947 29.5983 12.8213 29.5983C16.1115 29.5983 18.02 28.3698 18.02 26.1957C18.02 23.4673 15.9196 23.5678 10.9687 23.2657L11.5922 22.2664C12.8571 22.6191 17.1123 22.73 17.1123 19.1094C17.1123 18.2396 16.7529 17.6347 16.4129 17.1994L18.1524 17.067L18.1532 15.4614ZM24.4285 23.634L23.4612 23.5015C23.177 23.4636 23.1584 23.4271 23.1584 23.1228V15.2768H19.2447L19.0371 16.8073C20.209 17.2203 20.302 17.1689 20.302 17.564V23.125C20.302 23.5432 20.2789 23.4658 19.0371 23.6362V25.1288H24.4255L24.4285 23.634ZM31.9047 24.3899L31.3935 22.7255C28.3481 23.8691 28.5773 21.8021 28.5773 21.4807V16.9628H31.3935V15.0722H28.7283C28.5148 15.0722 28.5795 15.2597 28.5795 12.198H26.7804C26.5728 14.259 25.9114 15.0908 24.2507 15.2798V16.9628C25.7737 16.9628 25.7254 16.8996 25.7254 17.1518V22.105C25.7254 24.2419 26.5758 25.1489 28.8258 25.1489C29.901 25.1489 31.0914 24.7895 31.9047 24.3899V24.3899Z" fill="white"/>
</svg>
