<svg width="40" height="40" viewBox="0 0 40 40" fill="none" xmlns="http://www.w3.org/2000/svg">
<path d="M33.0953 3.33331H6.9048C4.93308 3.33331 3.33337 4.93302 3.33337 6.90474V33.0952C3.33337 35.0669 4.93308 36.6666 6.9048 36.6666H33.0953C35.067 36.6666 36.6667 35.0669 36.6667 33.0952V6.90474C36.6667 4.93302 35.067 3.33331 33.0953 3.33331ZM21.4733 29.3303C21.4733 32.5744 19.5685 34.055 16.7932 34.055C14.2858 34.055 12.8349 32.7604 12.0908 31.1905L14.6429 29.6503C15.134 30.5208 15.5804 31.2574 16.6593 31.2574C17.6861 31.2574 18.3408 30.8556 18.3408 29.2857V18.6384H21.4733V29.3303V29.3303ZM28.884 34.055C25.9747 34.055 24.0923 32.6711 23.1771 30.8556L25.7292 29.3824C26.3989 30.4762 27.2768 31.2872 28.817 31.2872C30.1117 31.2872 30.945 30.6399 30.945 29.7396C30.945 28.6681 30.0968 28.2887 28.6608 27.6562L27.8795 27.3214C25.6176 26.3616 24.1221 25.1488 24.1221 22.5967C24.1221 20.2455 25.9152 18.4598 28.7054 18.4598C30.6994 18.4598 32.128 19.1518 33.1548 20.9672L30.7143 22.5297C30.1786 21.5699 29.5983 21.1905 28.698 21.1905C27.7828 21.1905 27.2024 21.7708 27.2024 22.5297C27.2024 23.4672 27.7828 23.8467 29.1295 24.4345L29.9108 24.7693C32.5744 25.9077 34.07 27.0759 34.07 29.6949C34.07 32.5074 31.8527 34.055 28.884 34.055V34.055Z" fill="white"/>
</svg>
