<svg width="40" height="40" viewBox="0 0 40 40" fill="none" xmlns="http://www.w3.org/2000/svg">
<path d="M19.9934 36.6666C19.5502 36.6666 19.1004 36.5476 18.7102 36.3227L14.6291 33.9084C14.0206 33.5645 14.3182 33.4454 14.5166 33.3793C15.3302 33.0949 15.4956 33.0353 16.3621 32.5393C16.4547 32.4863 16.5737 32.5062 16.6663 32.5657L19.8016 34.4244C19.914 34.4905 20.0727 34.4905 20.1786 34.4244L32.3954 27.3734C32.5078 27.3073 32.5806 27.175 32.5806 27.0427V12.9407C32.5806 12.8018 32.5078 12.6762 32.3888 12.6034L20.1786 5.55906C20.0661 5.49292 19.914 5.49292 19.8016 5.55906L7.59796 12.61C7.4789 12.6762 7.40614 12.8085 7.40614 12.9474V27.0427C7.40614 27.175 7.4789 27.3073 7.59796 27.3668L10.9449 29.2982C12.7638 30.2044 13.875 29.1394 13.875 28.0613V14.1446C13.875 13.9461 14.0338 13.794 14.2322 13.794H15.78C15.9718 13.794 16.1372 13.9461 16.1372 14.1446V28.0679C16.1372 30.4888 14.8143 31.8778 12.5191 31.8778C11.8113 31.8778 11.2557 31.8778 9.70796 31.1105L6.50658 29.2651C5.71286 28.8087 5.22339 27.9555 5.22339 27.0361V12.9407C5.22339 12.028 5.71286 11.1681 6.50658 10.7117L18.7102 3.66073C19.4841 3.22418 20.5093 3.22418 21.2766 3.66073L33.4934 10.7183C34.2871 11.1747 34.7766 12.028 34.7766 12.9474V27.0427C34.7766 27.9555 34.2871 28.8087 33.4934 29.2717L21.2766 36.3227C20.8863 36.5476 20.4432 36.6666 19.9934 36.6666ZM29.8555 22.7698C29.8555 20.1306 28.0696 19.4295 24.3192 18.9334C20.5225 18.4307 20.1389 18.1727 20.1389 17.2864C20.1389 16.5522 20.463 15.5733 23.2741 15.5733C25.781 15.5733 26.707 16.1157 27.0906 17.809C27.1237 17.9677 27.2692 18.0868 27.4346 18.0868H29.022C29.1213 18.0868 29.2139 18.0471 29.28 17.9743C29.3461 17.9016 29.3792 17.8023 29.3726 17.7031C29.1279 14.7862 27.1899 13.4302 23.2741 13.4302C19.7883 13.4302 17.7114 14.8986 17.7114 17.3658C17.7114 20.038 19.7817 20.7788 23.122 21.1095C27.1237 21.4998 27.4346 22.0885 27.4346 22.8756C27.4346 24.2382 26.3366 24.8202 23.7636 24.8202C20.5291 24.8202 19.8214 24.0067 19.5833 22.3994C19.5568 22.2274 19.4113 22.1017 19.2327 22.1017H17.6519C17.4534 22.1017 17.3013 22.2605 17.3013 22.4523C17.3013 24.5094 18.4191 26.9633 23.7702 26.9633C27.633 26.9567 29.8555 25.4288 29.8555 22.7698V22.7698Z" fill="white"/>
</svg>
