<svg width="40" height="40" viewBox="0 0 40 40" fill="none" xmlns="http://www.w3.org/2000/svg">
<path d="M30.5599 14.8682C30.2084 14.751 29.8568 14.6403 29.5053 14.5362C29.5638 14.2953 29.6159 14.0544 29.668 13.8135C30.4688 9.93331 29.9414 6.81482 28.1641 5.78617C26.4519 4.8031 23.6589 5.82524 20.8334 8.28617C20.5534 8.52706 20.28 8.78097 20.0196 9.03487C19.8438 8.8656 19.6615 8.69633 19.4792 8.53357C16.517 5.90336 13.5482 4.79659 11.7709 5.83175C10.0651 6.82133 9.55733 9.75753 10.2735 13.4294C10.3451 13.794 10.4232 14.1521 10.5144 14.5166C10.0977 14.6338 9.68754 14.764 9.30343 14.9008C5.82686 16.1052 3.33337 18.0062 3.33337 19.9724C3.33337 22.0036 5.98962 24.0414 9.60291 25.2784C9.89587 25.376 10.1888 25.4737 10.4883 25.5583C10.3907 25.9489 10.306 26.333 10.2279 26.7302C9.54431 30.3435 10.0782 33.208 11.7839 34.1911C13.5417 35.2067 16.4974 34.1651 19.375 31.6455C19.6029 31.4437 19.8308 31.2354 20.0586 31.014C20.3451 31.294 20.6446 31.5609 20.9441 31.8213C23.7305 34.2172 26.4844 35.1872 28.1836 34.2041C29.9414 33.1885 30.5144 30.1091 29.7722 26.3591C29.7136 26.0726 29.6485 25.7797 29.5769 25.4802C29.7852 25.4216 29.987 25.3565 30.1888 25.2914C33.9454 24.0479 36.6667 22.0362 36.6667 19.9724C36.6667 17.9997 34.1016 16.0857 30.5599 14.8682V14.8682ZM21.7513 9.34086C24.1732 7.23149 26.4323 6.40466 27.461 6.99711C28.5612 7.62862 28.9844 10.1807 28.2943 13.5336C28.2487 13.7549 28.2032 13.9698 28.1446 14.1846C26.6993 13.8591 25.2344 13.6247 23.7631 13.4945C22.9167 12.2836 21.9922 11.1247 20.9896 10.0375C21.2435 9.79659 21.4909 9.56873 21.7513 9.34086V9.34086ZM14.2188 23.3513C14.5508 23.9177 14.8894 24.4841 15.2474 25.0375C14.2318 24.9268 13.2227 24.764 12.2266 24.5492C12.5131 23.6117 12.8711 22.6416 13.2878 21.6521C13.5873 22.225 13.8933 22.7914 14.2188 23.3513V23.3513ZM12.2461 15.5192C13.1836 15.3109 14.1797 15.1416 15.2149 15.0114C14.8698 15.5518 14.5313 16.1052 14.2123 16.6651C13.8933 17.2185 13.5808 17.7849 13.2878 18.3578C12.8776 17.3877 12.5326 16.4372 12.2461 15.5192ZM14.03 20.0049C14.4597 19.1065 14.9284 18.2276 15.4232 17.3617C15.918 16.4958 16.4519 15.656 17.0118 14.8291C17.9883 14.7575 18.9844 14.7185 20 14.7185C21.0157 14.7185 22.0183 14.7575 22.9883 14.8291C23.5417 15.6495 24.0691 16.4893 24.5704 17.3487C25.0717 18.208 25.5404 19.087 25.9831 19.9789C25.5469 20.8773 25.0782 21.7627 24.5769 22.6351C24.0821 23.501 23.5547 24.3409 23.0013 25.1742C22.0313 25.2458 21.0222 25.2784 20 25.2784C18.9779 25.2784 17.9883 25.2458 17.0313 25.1872C16.4649 24.3604 15.931 23.514 15.4297 22.6482C14.9284 21.7823 14.4662 20.9034 14.03 20.0049ZM25.7878 23.3383C26.1198 22.7653 26.4323 22.1859 26.7383 21.6C27.155 22.544 27.5196 23.501 27.8386 24.4841C26.8295 24.712 25.8073 24.8877 24.7787 25.0049C25.1303 24.458 25.4623 23.8982 25.7878 23.3383ZM26.7253 18.3578C26.4193 17.7849 26.1068 17.212 25.7813 16.6521C25.4623 16.0987 25.1303 15.5518 24.7852 15.0114C25.8334 15.1416 26.836 15.3174 27.7735 15.5323C27.474 16.4958 27.1224 17.4333 26.7253 18.3578V18.3578ZM20.0131 11.0336C20.6967 11.7758 21.3412 12.557 21.9401 13.3643C20.6511 13.3057 19.3555 13.3057 18.0664 13.3643C18.7045 12.5245 19.362 11.7432 20.0131 11.0336ZM12.461 7.04268C13.5547 6.40466 15.9831 7.31612 18.5417 9.58175C18.7045 9.72498 18.8672 9.88123 19.0365 10.0375C18.0274 11.1247 17.0964 12.2836 16.2435 13.4945C14.7722 13.6247 13.3138 13.8526 11.8685 14.1716C11.7839 13.8396 11.7123 13.501 11.6407 13.1625C11.0287 10.0114 11.4323 7.63513 12.461 7.04268V7.04268ZM10.8659 24.2041C10.5925 24.126 10.3256 24.0414 10.0586 23.9502C8.67192 23.514 7.0964 22.8239 5.95707 21.919C5.29952 21.4633 4.85681 20.7601 4.73311 19.9724C4.73311 18.781 6.79041 17.2575 9.75916 16.2224C10.1302 16.0922 10.5079 15.975 10.8855 15.8643C11.3282 17.2771 11.862 18.6638 12.4805 20.0049C11.8555 21.3656 11.3151 22.7719 10.8659 24.2041V24.2041ZM18.4571 30.5844C17.3829 31.5674 16.1394 32.3487 14.7852 32.8825C14.0625 33.2276 13.2292 33.2601 12.487 32.9672C11.4519 32.3682 11.0222 30.07 11.6081 26.9776C11.6797 26.613 11.7579 26.2484 11.849 25.8903C13.3073 26.2028 14.7787 26.4177 16.2696 26.5284C17.1289 27.7458 18.073 28.9112 19.0821 30.0049C18.8737 30.2067 18.6654 30.4021 18.4571 30.5844ZM20.0521 29.0023C19.3881 28.2862 18.724 27.4919 18.0795 26.639C18.7045 26.6651 19.349 26.6781 20 26.6781C20.6706 26.6781 21.3282 26.6651 21.9792 26.6325C21.3803 27.4594 20.7357 28.2471 20.0521 29.0023V29.0023ZM28.5612 30.9554C28.5026 31.7497 28.112 32.4919 27.487 32.9932C26.4519 33.5922 24.2448 32.8109 21.862 30.7666C21.5886 30.5323 21.3151 30.2784 21.0352 30.0179C22.0313 28.9177 22.9493 27.7523 23.7826 26.5284C25.2735 26.4047 26.7579 26.1768 28.2227 25.8448C28.2878 26.1117 28.3464 26.3786 28.3985 26.639C28.7175 28.0453 28.7696 29.5101 28.5612 30.9554V30.9554ZM29.7461 23.9567C29.5638 24.0153 29.3816 24.0739 29.1928 24.126C28.737 22.7067 28.1771 21.32 27.5326 19.9724C28.1576 18.6442 28.6849 17.2771 29.1276 15.8773C29.4662 15.975 29.7917 16.0791 30.1042 16.1833C33.1381 17.225 35.267 18.7745 35.267 19.9594C35.267 21.2354 32.9948 22.8825 29.7461 23.9567ZM20 22.9802C21.6472 22.9802 22.9818 21.6455 22.9818 19.9984C22.9818 18.3513 21.6472 17.0166 20 17.0166C18.3529 17.0166 17.0183 18.3513 17.0183 19.9984C17.0183 21.6455 18.3529 22.9802 20 22.9802Z" fill="white"/>
</svg>
