<svg width="40" height="40" viewBox="0 0 40 40" fill="none" xmlns="http://www.w3.org/2000/svg">
<path d="M19.0542 26.4009C19.0386 26.4321 19.023 26.4571 19.0542 26.4009V26.4009ZM32.0299 21.8696C30.9823 21.8692 29.9487 22.1098 29.009 22.5727C28.7017 21.9529 28.384 21.4112 28.3319 21.005C28.2694 20.531 28.2017 20.2497 28.2746 19.6872C28.3475 19.1247 28.6757 18.3279 28.6705 18.2706C28.6653 18.2133 28.5975 17.9268 27.9257 17.9216C27.2538 17.9164 26.6756 18.0518 26.6085 18.2289C26.4898 18.5525 26.3975 18.8852 26.3324 19.2237C26.2126 19.8331 24.9892 22.0102 24.2965 23.1456C24.0673 22.7029 23.8746 22.3123 23.8329 21.9998C23.7704 21.5258 23.7027 21.2446 23.7756 20.682C23.8485 20.1195 24.1767 19.3227 24.1715 19.2654C24.1662 19.2081 24.0985 18.9216 23.4272 18.9164C22.7558 18.9112 22.1772 19.0466 22.1094 19.2237C22.0417 19.4008 21.9688 19.8175 21.8334 20.2185C21.698 20.6195 20.0683 24.2446 19.6417 25.1873C19.423 25.6665 19.2355 26.0519 19.1 26.3123C19.0792 26.354 19.0636 26.38 19.0532 26.4009C19.0688 26.3748 19.0792 26.3488 19.0792 26.3592C18.9646 26.5832 18.8969 26.7082 18.8969 26.7082V26.7134C18.8084 26.88 18.7094 27.0311 18.6625 27.0311C18.6313 27.0311 18.5636 26.5936 18.6782 25.9946C18.923 24.7342 19.5011 22.7758 19.4959 22.7081C19.4907 22.6717 19.6053 22.3331 19.1157 22.1508C18.6417 21.9789 18.4698 22.2654 18.4282 22.2654C18.3865 22.2654 18.3552 22.3696 18.3552 22.3696C18.3552 22.3696 18.8813 20.1612 17.3453 20.1612C16.387 20.1612 15.0536 21.2133 14.3984 22.1664C13.987 22.3904 13.0963 22.8748 12.1588 23.3904C11.7994 23.5883 11.4296 23.7915 11.0807 23.9842C11.0546 23.9581 11.0338 23.9321 11.0078 23.906C9.14367 21.9164 5.70197 20.5102 5.8478 17.8383C5.89989 16.8643 6.23843 14.307 12.4661 11.2028C17.5703 8.66107 21.6511 9.359 22.3537 10.9111C23.3642 13.1247 20.1719 17.2445 14.8713 17.8383C12.851 18.0622 11.789 17.281 11.5234 16.9893C11.2473 16.682 11.2057 16.6664 11.1015 16.7237C10.9296 16.8174 11.039 17.0883 11.1015 17.2497C11.2578 17.6612 11.9088 18.3904 13.0177 18.7549C13.9916 19.0727 16.3604 19.2497 19.2245 18.1403C22.4423 16.9008 24.947 13.4476 24.2126 10.5569C23.4647 7.61939 18.5938 6.65584 13.988 8.29128C11.2437 9.26525 8.27595 10.7965 6.14103 12.7913C3.60507 15.1664 3.19933 17.2341 3.366 18.0987C3.95924 21.1664 8.18741 23.1665 9.87962 24.6456C9.79629 24.6925 9.71816 24.7342 9.64524 24.7758C8.79679 25.1977 5.57332 26.8852 4.76654 28.6665C3.85507 30.6874 4.91758 32.1353 5.61499 32.3332C7.79157 32.9374 10.0202 31.8488 11.2177 30.0624C12.4151 28.2759 12.2698 25.9425 11.7177 24.88C11.7125 24.8644 11.702 24.854 11.6968 24.8383C11.9156 24.7081 12.1395 24.5779 12.3635 24.4477C12.7953 24.1925 13.2172 23.9581 13.587 23.755C13.3786 24.3175 13.2276 24.9946 13.1494 25.9738C13.0557 27.1196 13.5297 28.604 14.1443 29.1874C14.4151 29.4426 14.7427 29.4478 14.9458 29.4478C15.6646 29.4478 15.9875 28.854 16.3464 28.1457C16.7891 27.2811 17.1797 26.2759 17.1797 26.2759C17.1797 26.2759 16.6901 28.9946 18.0287 28.9946C18.5177 28.9946 19.0073 28.3644 19.2266 28.0415V28.0467C19.2266 28.0467 19.237 28.0259 19.2631 27.9842C19.3151 27.9061 19.3412 27.8592 19.3412 27.8592V27.8436C19.5391 27.505 19.9714 26.729 20.6219 25.4477C21.4657 23.7915 22.2725 21.7237 22.2725 21.7237C22.3504 22.1783 22.4583 22.6272 22.5954 23.0675C22.7412 23.5623 23.0485 24.104 23.2933 24.63C23.0954 24.9008 22.9756 25.0571 22.9756 25.0571C22.976 25.0611 22.9778 25.0648 22.9808 25.0675C22.8246 25.2759 22.6475 25.4998 22.4652 25.7186C21.799 26.5102 21.0068 27.4165 20.9027 27.6769C20.7777 27.9842 20.8089 28.2134 21.0485 28.3905C21.2256 28.5259 21.5381 28.5467 21.8657 28.5207C22.4647 28.479 22.8865 28.3332 23.0897 28.2394C23.4641 28.1051 23.8181 27.9193 24.1412 27.6873C24.7923 27.2082 25.1881 26.5207 25.1517 25.6144C25.1308 25.1144 24.9694 24.6144 24.7715 24.1456C24.8288 24.0623 24.8913 23.9738 24.9485 23.8852C25.9793 22.38 26.7762 20.7279 26.7762 20.7279C26.8541 21.1824 26.962 21.6313 27.0991 22.0716C27.2241 22.4935 27.4684 22.9571 27.6923 23.4102C26.7241 24.1967 26.1251 25.1081 25.9168 25.7071C25.5314 26.8165 25.8335 27.3165 26.4012 27.4311C26.6564 27.4832 27.021 27.3634 27.2918 27.2488C27.694 27.1148 28.0733 26.9198 28.4163 26.6707C29.0673 26.1915 29.697 25.5196 29.6554 24.6081C29.6397 24.1967 29.5252 23.7852 29.3741 23.3894C30.1918 23.0456 31.2538 22.8581 32.608 23.0144C35.508 23.3529 36.0758 25.1654 35.9664 25.9206C35.857 26.6759 35.2476 27.0977 35.0445 27.2227C34.8414 27.3477 34.7789 27.3946 34.7945 27.4884C34.8205 27.6238 34.9143 27.6186 35.0862 27.5873C35.3258 27.5457 36.6065 26.9727 36.6638 25.5717C36.7471 23.8008 35.0445 21.8529 32.0283 21.8685L32.0299 21.8696ZM9.67649 29.4061C8.71867 30.453 7.3749 30.8488 6.79729 30.5155C6.17749 30.1551 6.42229 28.6144 7.60407 27.4988C8.32283 26.8217 9.2494 26.1967 9.86399 25.8113C10.0046 25.7279 10.2077 25.6029 10.4578 25.4519C10.4994 25.4259 10.5203 25.4154 10.5203 25.4154C10.5671 25.3842 10.6192 25.3581 10.6713 25.3269C11.1031 26.9102 10.6869 28.3061 9.67649 29.4051V29.4061ZM16.6745 24.6456C16.3412 25.4634 15.6385 27.5467 15.2115 27.4373C14.8469 27.3436 14.6229 25.755 15.1385 24.1925C15.399 23.406 15.951 22.4685 16.2792 22.1039C16.8047 21.5154 17.3828 21.3279 17.5183 21.5623C17.7005 21.8696 16.8828 24.1352 16.6745 24.6456ZM22.4558 27.4061C22.3152 27.479 22.185 27.5259 22.1225 27.4894C22.0756 27.4634 22.1798 27.3644 22.1798 27.3644C22.1798 27.3644 22.9037 26.5884 23.1902 26.2342C23.3569 26.0259 23.5496 25.7811 23.7574 25.5102C23.7574 25.5363 23.7626 25.5623 23.7626 25.5936C23.7558 26.5259 22.8605 27.1561 22.4542 27.4061H22.4558ZM26.9132 26.3904C26.809 26.3175 26.8246 26.0727 27.1736 25.3123C27.309 25.0154 27.621 24.5154 28.1632 24.0363C28.2245 24.2176 28.2579 24.4073 28.2621 24.5988C28.2569 25.7706 27.4184 26.2082 26.9137 26.3904H26.9132Z" fill="white"/>
</svg>
