<svg width="900" height="527" viewBox="0 0 900 527" fill="none" xmlns="http://www.w3.org/2000/svg">
<g filter="url(#filter0_d_2_84)">
<path d="M30.4361 1.36476C65.5416 12.6971 102.065 18.321 137.72 27.3947C197.637 42.6432 257.241 61.3249 315.713 81.691C431.233 121.927 523.448 194.085 618.466 260.517C637.484 273.814 657.629 286.51 679.145 296.794C702.369 307.895 727.555 315.261 752.18 323.017C809.985 341.224 870.349 351.451 928.86 366.817C1043.92 397.034 1157.31 437.914 1270.64 474.501" stroke="#FF067E" stroke-width="3" stroke-linecap="round"/>
</g>
<g filter="url(#filter1_d_2_84)">
<path d="M45.1323 -9.07671C80.2379 2.25565 116.762 7.87954 152.416 16.9533C212.334 32.2017 271.937 50.8834 330.41 71.2496C445.929 111.485 538.145 183.644 633.162 250.076C652.181 263.372 672.325 276.069 693.841 286.353C717.065 297.453 742.252 304.82 766.876 312.576C824.681 330.783 885.045 341.01 943.556 356.376C1058.62 386.593 1172 427.473 1285.34 464.059" stroke="#EB06FF" stroke-width="3" stroke-linecap="round"/>
</g>
<g filter="url(#filter2_d_2_84)">
<path d="M49.9517 -15.2227C85.0572 -3.89034 121.581 1.73355 157.235 10.8073C217.153 26.0557 276.756 44.7374 335.229 65.1036C450.749 105.34 542.964 177.498 637.982 243.93C657 257.226 677.144 269.923 698.661 280.207C721.885 291.307 747.071 298.674 771.695 306.43C829.501 324.637 889.865 334.864 948.375 350.23C1063.44 380.447 1176.82 421.327 1290.16 457.913" stroke="#AF06FF" stroke-width="3" stroke-linecap="round"/>
</g>
<g filter="url(#filter3_d_2_84)">
<path d="M54.771 -21.3686C89.8766 -10.0363 126.4 -4.41239 162.055 4.66133C221.972 19.9098 281.576 38.5915 340.048 58.9576C455.568 99.1936 547.783 171.352 642.801 237.784C661.819 251.08 681.964 263.777 703.48 274.061C726.704 285.162 751.89 292.528 776.515 300.284C834.32 318.491 894.684 328.718 953.195 344.084C1068.26 374.301 1181.64 415.181 1294.98 451.767" stroke="#7406FF" stroke-width="3" stroke-linecap="round"/>
</g>
<g filter="url(#filter4_d_2_84)">
<path d="M59.5906 -27.5146C94.6961 -16.1823 131.22 -10.5584 166.874 -1.48467C226.792 13.7638 286.395 32.4455 344.868 52.8116C460.388 93.0476 552.603 165.206 647.621 231.638C666.639 244.934 686.783 257.631 708.3 267.915C731.524 279.016 756.71 286.382 781.334 294.138C839.139 312.345 899.504 322.572 958.014 337.938C1073.08 368.155 1186.46 409.035 1299.8 445.621" stroke="#4706FF" stroke-width="3" stroke-linecap="round"/>
</g>
<g filter="url(#filter5_d_2_84)">
<path d="M65.4094 -33.6904C100.515 -22.358 137.039 -16.7341 172.693 -7.66039C232.611 7.58808 292.214 26.2698 350.687 46.6359C466.207 86.8719 558.422 159.03 653.439 225.462C672.458 238.759 692.602 251.455 714.119 261.739C737.342 272.84 762.529 280.206 787.153 287.962C844.958 306.169 905.323 316.396 963.833 331.762C1078.9 361.979 1192.28 402.859 1305.62 439.446" stroke="#064CFF" stroke-width="3" stroke-linecap="round"/>
</g>
<g filter="url(#filter6_d_2_84)">
<path d="M72.2578 -38.8962C107.363 -27.5639 143.887 -21.94 179.542 -12.8663C239.459 2.38221 299.062 21.0639 357.535 41.4301C473.055 81.666 565.27 153.824 660.288 220.256C679.306 233.553 699.451 246.249 720.967 256.533C744.191 267.634 769.377 275 794.002 282.756C851.807 300.963 912.171 311.19 970.682 326.556C1085.74 356.773 1199.13 397.653 1312.46 434.24" stroke="#064CFF" stroke-width="3" stroke-linecap="round"/>
</g>
<g filter="url(#filter7_d_2_84)">
<path d="M78.1065 -44.0724C113.212 -32.74 149.736 -27.1161 185.39 -18.0424C245.308 -2.79394 304.911 15.8877 363.384 36.2539C478.904 76.4898 571.119 148.648 666.136 215.08C685.155 228.377 705.299 241.073 726.816 251.357C750.039 262.458 775.226 269.824 799.85 277.58C857.655 295.787 918.02 306.014 976.53 321.38C1091.59 351.597 1204.98 392.477 1318.31 429.064" stroke="#066AFF" stroke-width="3" stroke-linecap="round"/>
</g>
<g filter="url(#filter8_d_2_84)">
<path d="M82.9556 -49.2188C118.061 -37.8864 154.585 -32.2625 190.239 -23.1888C250.157 -7.94036 309.76 10.7413 368.233 31.1075C483.753 71.3434 575.968 143.502 670.986 209.934C690.004 223.23 710.148 235.926 731.665 246.211C754.889 257.311 780.075 264.678 804.699 272.434C862.504 290.641 922.869 300.868 981.379 316.234C1096.44 346.451 1209.82 387.331 1323.16 423.917" stroke="#06A5FF" stroke-width="3" stroke-linecap="round"/>
</g>
<g filter="url(#filter9_d_2_84)">
<path d="M88.8045 -54.3949C123.91 -43.0626 160.434 -37.4387 196.088 -28.365C256.006 -13.1165 315.609 5.56517 374.082 25.9313C489.602 66.1673 581.817 138.325 676.834 204.757C695.853 218.054 715.997 230.75 737.514 241.035C760.737 252.135 785.924 259.502 810.548 267.258C868.353 285.465 928.718 295.692 987.228 311.057C1102.29 341.275 1215.67 382.155 1329.01 418.741" stroke="#06C3FF" stroke-width="3" stroke-linecap="round"/>
</g>
<g filter="url(#filter10_d_2_84)">
<path d="M93.6536 -59.5414C128.759 -48.209 165.283 -42.5851 200.937 -33.5114C260.855 -18.2629 320.458 0.418745 378.931 20.7849C494.451 61.0208 586.666 133.179 681.684 199.611C700.702 212.908 720.846 225.604 742.363 235.888C765.587 246.989 790.773 254.355 815.397 262.111C873.202 280.318 933.567 290.545 992.077 305.911C1107.14 336.128 1220.52 377.008 1333.86 413.595" stroke="#06F0FF" stroke-width="3" stroke-linecap="round"/>
</g>
<g filter="url(#filter11_d_2_84)">
<path d="M37.2844 -3.84111C72.39 7.49125 108.914 13.1151 144.568 22.1889C204.486 37.4373 264.089 56.119 322.562 76.4852C438.082 116.721 530.297 188.879 625.314 255.311C644.333 268.608 664.477 281.304 685.994 291.589C709.217 302.689 734.404 310.056 759.028 317.812C816.833 336.018 877.198 346.245 935.708 361.611C1050.77 391.829 1164.15 432.708 1277.49 469.295" stroke="#FF06C8" stroke-width="3" stroke-linecap="round"/>
</g>
<defs>
<filter id="filter0_d_2_84" x="18.9355" y="-10.1356" width="1263.21" height="496.137" filterUnits="userSpaceOnUse" color-interpolation-filters="sRGB">
<feFlood flood-opacity="0" result="BackgroundImageFix"/>
<feColorMatrix in="SourceAlpha" type="matrix" values="0 0 0 0 0 0 0 0 0 0 0 0 0 0 0 0 0 0 127 0" result="hardAlpha"/>
<feOffset/>
<feGaussianBlur stdDeviation="5"/>
<feComposite in2="hardAlpha" operator="out"/>
<feColorMatrix type="matrix" values="0 0 0 0 1 0 0 0 0 0.0235294 0 0 0 0 0.494118 0 0 0 1 0"/>
<feBlend mode="normal" in2="BackgroundImageFix" result="effect1_dropShadow_2_84"/>
<feBlend mode="normal" in="SourceGraphic" in2="effect1_dropShadow_2_84" result="shape"/>
</filter>
<filter id="filter1_d_2_84" x="33.6318" y="-20.5771" width="1263.21" height="496.137" filterUnits="userSpaceOnUse" color-interpolation-filters="sRGB">
<feFlood flood-opacity="0" result="BackgroundImageFix"/>
<feColorMatrix in="SourceAlpha" type="matrix" values="0 0 0 0 0 0 0 0 0 0 0 0 0 0 0 0 0 0 127 0" result="hardAlpha"/>
<feOffset/>
<feGaussianBlur stdDeviation="5"/>
<feComposite in2="hardAlpha" operator="out"/>
<feColorMatrix type="matrix" values="0 0 0 0 0.921569 0 0 0 0 0.0235294 0 0 0 0 1 0 0 0 1 0"/>
<feBlend mode="normal" in2="BackgroundImageFix" result="effect1_dropShadow_2_84"/>
<feBlend mode="normal" in="SourceGraphic" in2="effect1_dropShadow_2_84" result="shape"/>
</filter>
<filter id="filter2_d_2_84" x="38.4512" y="-26.7231" width="1263.21" height="496.137" filterUnits="userSpaceOnUse" color-interpolation-filters="sRGB">
<feFlood flood-opacity="0" result="BackgroundImageFix"/>
<feColorMatrix in="SourceAlpha" type="matrix" values="0 0 0 0 0 0 0 0 0 0 0 0 0 0 0 0 0 0 127 0" result="hardAlpha"/>
<feOffset/>
<feGaussianBlur stdDeviation="5"/>
<feComposite in2="hardAlpha" operator="out"/>
<feColorMatrix type="matrix" values="0 0 0 0 0.686275 0 0 0 0 0.0235294 0 0 0 0 1 0 0 0 1 0"/>
<feBlend mode="normal" in2="BackgroundImageFix" result="effect1_dropShadow_2_84"/>
<feBlend mode="normal" in="SourceGraphic" in2="effect1_dropShadow_2_84" result="shape"/>
</filter>
<filter id="filter3_d_2_84" x="43.2705" y="-32.869" width="1263.21" height="496.137" filterUnits="userSpaceOnUse" color-interpolation-filters="sRGB">
<feFlood flood-opacity="0" result="BackgroundImageFix"/>
<feColorMatrix in="SourceAlpha" type="matrix" values="0 0 0 0 0 0 0 0 0 0 0 0 0 0 0 0 0 0 127 0" result="hardAlpha"/>
<feOffset/>
<feGaussianBlur stdDeviation="5"/>
<feComposite in2="hardAlpha" operator="out"/>
<feColorMatrix type="matrix" values="0 0 0 0 0.454902 0 0 0 0 0.0235294 0 0 0 0 1 0 0 0 1 0"/>
<feBlend mode="normal" in2="BackgroundImageFix" result="effect1_dropShadow_2_84"/>
<feBlend mode="normal" in="SourceGraphic" in2="effect1_dropShadow_2_84" result="shape"/>
</filter>
<filter id="filter4_d_2_84" x="48.0901" y="-39.015" width="1263.21" height="496.137" filterUnits="userSpaceOnUse" color-interpolation-filters="sRGB">
<feFlood flood-opacity="0" result="BackgroundImageFix"/>
<feColorMatrix in="SourceAlpha" type="matrix" values="0 0 0 0 0 0 0 0 0 0 0 0 0 0 0 0 0 0 127 0" result="hardAlpha"/>
<feOffset/>
<feGaussianBlur stdDeviation="5"/>
<feComposite in2="hardAlpha" operator="out"/>
<feColorMatrix type="matrix" values="0 0 0 0 0.278431 0 0 0 0 0.0235294 0 0 0 0 1 0 0 0 1 0"/>
<feBlend mode="normal" in2="BackgroundImageFix" result="effect1_dropShadow_2_84"/>
<feBlend mode="normal" in="SourceGraphic" in2="effect1_dropShadow_2_84" result="shape"/>
</filter>
<filter id="filter5_d_2_84" x="53.9089" y="-45.1907" width="1263.21" height="496.137" filterUnits="userSpaceOnUse" color-interpolation-filters="sRGB">
<feFlood flood-opacity="0" result="BackgroundImageFix"/>
<feColorMatrix in="SourceAlpha" type="matrix" values="0 0 0 0 0 0 0 0 0 0 0 0 0 0 0 0 0 0 127 0" result="hardAlpha"/>
<feOffset/>
<feGaussianBlur stdDeviation="5"/>
<feComposite in2="hardAlpha" operator="out"/>
<feColorMatrix type="matrix" values="0 0 0 0 0.0235294 0 0 0 0 0.298039 0 0 0 0 1 0 0 0 1 0"/>
<feBlend mode="normal" in2="BackgroundImageFix" result="effect1_dropShadow_2_84"/>
<feBlend mode="normal" in="SourceGraphic" in2="effect1_dropShadow_2_84" result="shape"/>
</filter>
<filter id="filter6_d_2_84" x="60.7573" y="-50.3966" width="1263.21" height="496.137" filterUnits="userSpaceOnUse" color-interpolation-filters="sRGB">
<feFlood flood-opacity="0" result="BackgroundImageFix"/>
<feColorMatrix in="SourceAlpha" type="matrix" values="0 0 0 0 0 0 0 0 0 0 0 0 0 0 0 0 0 0 127 0" result="hardAlpha"/>
<feOffset/>
<feGaussianBlur stdDeviation="5"/>
<feComposite in2="hardAlpha" operator="out"/>
<feColorMatrix type="matrix" values="0 0 0 0 0.0235294 0 0 0 0 0.298039 0 0 0 0 1 0 0 0 1 0"/>
<feBlend mode="normal" in2="BackgroundImageFix" result="effect1_dropShadow_2_84"/>
<feBlend mode="normal" in="SourceGraphic" in2="effect1_dropShadow_2_84" result="shape"/>
</filter>
<filter id="filter7_d_2_84" x="66.606" y="-55.5728" width="1263.21" height="496.137" filterUnits="userSpaceOnUse" color-interpolation-filters="sRGB">
<feFlood flood-opacity="0" result="BackgroundImageFix"/>
<feColorMatrix in="SourceAlpha" type="matrix" values="0 0 0 0 0 0 0 0 0 0 0 0 0 0 0 0 0 0 127 0" result="hardAlpha"/>
<feOffset/>
<feGaussianBlur stdDeviation="5"/>
<feComposite in2="hardAlpha" operator="out"/>
<feColorMatrix type="matrix" values="0 0 0 0 0.0235294 0 0 0 0 0.415686 0 0 0 0 1 0 0 0 1 0"/>
<feBlend mode="normal" in2="BackgroundImageFix" result="effect1_dropShadow_2_84"/>
<feBlend mode="normal" in="SourceGraphic" in2="effect1_dropShadow_2_84" result="shape"/>
</filter>
<filter id="filter8_d_2_84" x="71.4551" y="-60.7192" width="1263.21" height="496.137" filterUnits="userSpaceOnUse" color-interpolation-filters="sRGB">
<feFlood flood-opacity="0" result="BackgroundImageFix"/>
<feColorMatrix in="SourceAlpha" type="matrix" values="0 0 0 0 0 0 0 0 0 0 0 0 0 0 0 0 0 0 127 0" result="hardAlpha"/>
<feOffset/>
<feGaussianBlur stdDeviation="5"/>
<feComposite in2="hardAlpha" operator="out"/>
<feColorMatrix type="matrix" values="0 0 0 0 0.0235294 0 0 0 0 0.647059 0 0 0 0 1 0 0 0 1 0"/>
<feBlend mode="normal" in2="BackgroundImageFix" result="effect1_dropShadow_2_84"/>
<feBlend mode="normal" in="SourceGraphic" in2="effect1_dropShadow_2_84" result="shape"/>
</filter>
<filter id="filter9_d_2_84" x="77.304" y="-65.8953" width="1263.21" height="496.137" filterUnits="userSpaceOnUse" color-interpolation-filters="sRGB">
<feFlood flood-opacity="0" result="BackgroundImageFix"/>
<feColorMatrix in="SourceAlpha" type="matrix" values="0 0 0 0 0 0 0 0 0 0 0 0 0 0 0 0 0 0 127 0" result="hardAlpha"/>
<feOffset/>
<feGaussianBlur stdDeviation="5"/>
<feComposite in2="hardAlpha" operator="out"/>
<feColorMatrix type="matrix" values="0 0 0 0 0.0235294 0 0 0 0 0.764706 0 0 0 0 1 0 0 0 1 0"/>
<feBlend mode="normal" in2="BackgroundImageFix" result="effect1_dropShadow_2_84"/>
<feBlend mode="normal" in="SourceGraphic" in2="effect1_dropShadow_2_84" result="shape"/>
</filter>
<filter id="filter10_d_2_84" x="82.1531" y="-71.0417" width="1263.21" height="496.137" filterUnits="userSpaceOnUse" color-interpolation-filters="sRGB">
<feFlood flood-opacity="0" result="BackgroundImageFix"/>
<feColorMatrix in="SourceAlpha" type="matrix" values="0 0 0 0 0 0 0 0 0 0 0 0 0 0 0 0 0 0 127 0" result="hardAlpha"/>
<feOffset/>
<feGaussianBlur stdDeviation="5"/>
<feComposite in2="hardAlpha" operator="out"/>
<feColorMatrix type="matrix" values="0 0 0 0 0.0235294 0 0 0 0 0.941176 0 0 0 0 1 0 0 0 1 0"/>
<feBlend mode="normal" in2="BackgroundImageFix" result="effect1_dropShadow_2_84"/>
<feBlend mode="normal" in="SourceGraphic" in2="effect1_dropShadow_2_84" result="shape"/>
</filter>
<filter id="filter11_d_2_84" x="25.7839" y="-15.3415" width="1263.21" height="496.137" filterUnits="userSpaceOnUse" color-interpolation-filters="sRGB">
<feFlood flood-opacity="0" result="BackgroundImageFix"/>
<feColorMatrix in="SourceAlpha" type="matrix" values="0 0 0 0 0 0 0 0 0 0 0 0 0 0 0 0 0 0 127 0" result="hardAlpha"/>
<feOffset/>
<feGaussianBlur stdDeviation="5"/>
<feComposite in2="hardAlpha" operator="out"/>
<feColorMatrix type="matrix" values="0 0 0 0 1 0 0 0 0 0.0235294 0 0 0 0 0.784314 0 0 0 1 0"/>
<feBlend mode="normal" in2="BackgroundImageFix" result="effect1_dropShadow_2_84"/>
<feBlend mode="normal" in="SourceGraphic" in2="effect1_dropShadow_2_84" result="shape"/>
</filter>
</defs>
</svg>
