<svg width="3197" height="970" viewBox="0 0 3197 970" fill="none" xmlns="http://www.w3.org/2000/svg">
<g filter="url(#filter0_d_34_740)">
<path d="M69.4788 807.738C151.899 790.112 237.919 781.264 321.734 767.111C462.587 743.328 602.546 714.262 739.761 682.609C1010.85 620.076 1225.49 508.538 1447 405.799C1491.33 385.235 1538.36 365.589 1588.73 349.648C1643.09 332.441 1702.26 320.971 1760.08 308.905C1895.81 280.579 2037.94 264.521 2175.46 240.564C2445.91 193.451 2711.92 129.938 2978.01 73.0336" stroke="#FF067E" stroke-width="3" stroke-linecap="round"/>
</g>
<g filter="url(#filter1_d_34_740)">
<path d="M104.648 823.73C187.068 806.104 273.088 797.256 356.904 783.103C497.756 759.319 637.716 730.253 774.931 698.601C1046.02 636.068 1260.66 524.53 1482.17 421.79C1526.5 401.226 1573.53 381.58 1623.9 365.639C1678.26 348.433 1737.43 336.963 1795.25 324.896C1930.98 296.571 2073.11 280.512 2210.63 256.555C2481.08 209.443 2747.09 145.93 3013.18 89.0251" stroke="#EB06FF" stroke-width="3" stroke-linecap="round"/>
</g>
<g filter="url(#filter2_d_34_740)">
<path d="M116.301 833.163C198.721 815.537 284.741 806.689 368.556 792.536C509.409 768.752 649.369 739.686 786.584 708.034C1057.67 645.501 1272.31 533.963 1493.82 431.223C1538.16 410.659 1585.18 391.014 1635.55 375.072C1689.92 357.866 1749.08 346.396 1806.9 334.329C1942.63 306.004 2084.76 289.945 2222.29 265.988C2492.73 218.876 2758.74 155.363 3024.83 98.4583" stroke="#AF06FF" stroke-width="3" stroke-linecap="round"/>
</g>
<g filter="url(#filter3_d_34_740)">
<path d="M127.954 842.596C210.374 824.97 296.394 816.122 380.209 801.969C521.062 778.185 661.022 749.119 798.236 717.467C1069.32 654.934 1283.96 543.396 1505.47 440.656C1549.81 420.092 1596.83 400.447 1647.2 384.505C1701.57 367.299 1760.73 355.829 1818.55 343.762C1954.29 315.437 2096.42 299.378 2233.94 275.421C2504.39 228.309 2770.39 164.796 3036.48 107.891" stroke="#7406FF" stroke-width="3" stroke-linecap="round"/>
</g>
<g filter="url(#filter4_d_34_740)">
<path d="M139.607 852.029C222.027 834.403 308.047 825.555 391.862 811.402C532.715 787.618 672.674 758.552 809.889 726.9C1080.97 664.367 1295.62 552.829 1517.13 450.089C1561.46 429.525 1608.49 409.88 1658.85 393.938C1713.22 376.732 1772.39 365.262 1830.21 353.196C1965.94 324.87 2108.07 308.811 2245.59 284.854C2516.04 237.742 2782.05 174.229 3048.14 117.324" stroke="#4706FF" stroke-width="3" stroke-linecap="round"/>
</g>
<g filter="url(#filter5_d_34_740)">
<path d="M153.622 861.503C236.042 843.877 322.062 835.029 405.877 820.876C546.73 797.092 686.69 768.026 823.904 736.374C1094.99 673.84 1309.63 562.303 1531.14 459.563C1575.48 438.999 1622.5 419.353 1672.87 403.412C1727.24 386.206 1786.4 374.736 1844.22 362.669C1979.96 334.343 2122.08 318.285 2259.61 294.328C2530.05 247.216 2796.06 183.703 3062.15 126.798" stroke="#064CFF" stroke-width="3" stroke-linecap="round"/>
</g>
<g filter="url(#filter6_d_34_740)">
<path d="M170.026 869.478C252.445 851.852 338.465 843.004 422.281 828.851C563.133 805.067 703.093 776.001 840.308 744.349C1111.39 681.816 1326.03 570.278 1547.54 467.538C1591.88 446.975 1638.9 427.329 1689.27 411.388C1743.64 394.181 1802.8 382.711 1860.63 370.645C1996.36 342.319 2138.49 326.26 2276.01 302.304C2546.46 255.191 2812.46 191.678 3078.56 134.773" stroke="#064CFF" stroke-width="3" stroke-linecap="round"/>
</g>
<g filter="url(#filter7_d_34_740)">
<path d="M184.067 877.413C266.487 859.787 352.507 850.939 436.322 836.786C577.175 813.002 717.135 783.937 854.35 752.284C1125.43 689.751 1340.08 578.213 1561.59 475.473C1605.92 454.91 1652.95 435.264 1703.31 419.323C1757.68 402.116 1816.85 390.646 1874.67 378.58C2010.4 350.254 2152.53 334.196 2290.05 310.239C2560.5 263.126 2826.51 199.613 3092.6 142.709" stroke="#066AFF" stroke-width="3" stroke-linecap="round"/>
</g>
<g filter="url(#filter8_d_34_740)">
<path d="M195.746 885.308C278.166 867.682 364.186 858.834 448.002 844.681C588.854 820.897 728.814 791.831 866.029 760.179C1137.11 697.646 1351.75 586.108 1573.27 483.368C1617.6 462.804 1664.62 443.158 1714.99 427.217C1769.36 410.011 1828.53 398.541 1886.35 386.474C2022.08 358.149 2164.21 342.09 2301.73 318.133C2572.18 271.021 2838.19 207.508 3104.28 150.603" stroke="#06A5FF" stroke-width="3" stroke-linecap="round"/>
</g>
<g filter="url(#filter9_d_34_740)">
<path d="M209.788 893.243C292.208 875.617 378.228 866.769 462.043 852.616C602.896 828.832 742.855 799.766 880.07 768.114C1151.16 705.581 1365.8 594.043 1587.31 491.303C1631.64 470.739 1678.67 451.094 1729.04 435.152C1783.4 417.946 1842.57 406.476 1900.39 394.409C2036.12 366.084 2178.25 350.025 2315.77 326.068C2586.22 278.956 2852.23 215.443 3118.32 158.538" stroke="#06C3FF" stroke-width="3" stroke-linecap="round"/>
</g>
<g filter="url(#filter10_d_34_740)">
<path d="M221.467 901.137C303.887 883.512 389.907 874.663 473.722 860.511C614.575 836.727 754.534 807.661 891.749 776.008C1162.83 713.475 1377.48 601.938 1598.99 499.198C1643.32 478.634 1690.35 458.988 1740.71 443.047C1795.08 425.84 1854.25 414.37 1912.07 402.304C2047.8 373.978 2189.93 357.92 2327.45 333.963C2597.9 286.85 2863.91 223.338 3130 166.433" stroke="#06F0FF" stroke-width="3" stroke-linecap="round"/>
</g>
<g filter="url(#filter11_d_34_740)">
<path d="M85.8824 815.714C168.302 798.088 254.322 789.24 338.138 775.087C478.99 751.303 618.95 722.237 756.165 690.585C1027.25 628.052 1241.89 516.514 1463.4 413.774C1507.74 393.21 1554.76 373.564 1605.13 357.623C1659.5 340.417 1718.66 328.947 1776.48 316.88C1912.22 288.555 2054.34 272.496 2191.87 248.539C2462.31 201.427 2728.32 137.914 2994.41 81.0092" stroke="#FF06C8" stroke-width="3" stroke-linecap="round"/>
</g>
<defs>
<filter id="filter0_d_34_740" x="57.8545" y="61.6685" width="2931.78" height="757.435" filterUnits="userSpaceOnUse" color-interpolation-filters="sRGB">
<feFlood flood-opacity="0" result="BackgroundImageFix"/>
<feColorMatrix in="SourceAlpha" type="matrix" values="0 0 0 0 0 0 0 0 0 0 0 0 0 0 0 0 0 0 127 0" result="hardAlpha"/>
<feOffset/>
<feGaussianBlur stdDeviation="5"/>
<feComposite in2="hardAlpha" operator="out"/>
<feColorMatrix type="matrix" values="0 0 0 0 1 0 0 0 0 0.0235294 0 0 0 0 0.494118 0 0 0 1 0"/>
<feBlend mode="normal" in2="BackgroundImageFix" result="effect1_dropShadow_34_740"/>
<feBlend mode="normal" in="SourceGraphic" in2="effect1_dropShadow_34_740" result="shape"/>
</filter>
<filter id="filter1_d_34_740" x="93.024" y="77.6599" width="2931.78" height="757.435" filterUnits="userSpaceOnUse" color-interpolation-filters="sRGB">
<feFlood flood-opacity="0" result="BackgroundImageFix"/>
<feColorMatrix in="SourceAlpha" type="matrix" values="0 0 0 0 0 0 0 0 0 0 0 0 0 0 0 0 0 0 127 0" result="hardAlpha"/>
<feOffset/>
<feGaussianBlur stdDeviation="5"/>
<feComposite in2="hardAlpha" operator="out"/>
<feColorMatrix type="matrix" values="0 0 0 0 0.921569 0 0 0 0 0.0235294 0 0 0 0 1 0 0 0 1 0"/>
<feBlend mode="normal" in2="BackgroundImageFix" result="effect1_dropShadow_34_740"/>
<feBlend mode="normal" in="SourceGraphic" in2="effect1_dropShadow_34_740" result="shape"/>
</filter>
<filter id="filter2_d_34_740" x="104.677" y="87.093" width="2931.78" height="757.435" filterUnits="userSpaceOnUse" color-interpolation-filters="sRGB">
<feFlood flood-opacity="0" result="BackgroundImageFix"/>
<feColorMatrix in="SourceAlpha" type="matrix" values="0 0 0 0 0 0 0 0 0 0 0 0 0 0 0 0 0 0 127 0" result="hardAlpha"/>
<feOffset/>
<feGaussianBlur stdDeviation="5"/>
<feComposite in2="hardAlpha" operator="out"/>
<feColorMatrix type="matrix" values="0 0 0 0 0.686275 0 0 0 0 0.0235294 0 0 0 0 1 0 0 0 1 0"/>
<feBlend mode="normal" in2="BackgroundImageFix" result="effect1_dropShadow_34_740"/>
<feBlend mode="normal" in="SourceGraphic" in2="effect1_dropShadow_34_740" result="shape"/>
</filter>
<filter id="filter3_d_34_740" x="116.33" y="96.5261" width="2931.78" height="757.435" filterUnits="userSpaceOnUse" color-interpolation-filters="sRGB">
<feFlood flood-opacity="0" result="BackgroundImageFix"/>
<feColorMatrix in="SourceAlpha" type="matrix" values="0 0 0 0 0 0 0 0 0 0 0 0 0 0 0 0 0 0 127 0" result="hardAlpha"/>
<feOffset/>
<feGaussianBlur stdDeviation="5"/>
<feComposite in2="hardAlpha" operator="out"/>
<feColorMatrix type="matrix" values="0 0 0 0 0.454902 0 0 0 0 0.0235294 0 0 0 0 1 0 0 0 1 0"/>
<feBlend mode="normal" in2="BackgroundImageFix" result="effect1_dropShadow_34_740"/>
<feBlend mode="normal" in="SourceGraphic" in2="effect1_dropShadow_34_740" result="shape"/>
</filter>
<filter id="filter4_d_34_740" x="127.983" y="105.959" width="2931.78" height="757.435" filterUnits="userSpaceOnUse" color-interpolation-filters="sRGB">
<feFlood flood-opacity="0" result="BackgroundImageFix"/>
<feColorMatrix in="SourceAlpha" type="matrix" values="0 0 0 0 0 0 0 0 0 0 0 0 0 0 0 0 0 0 127 0" result="hardAlpha"/>
<feOffset/>
<feGaussianBlur stdDeviation="5"/>
<feComposite in2="hardAlpha" operator="out"/>
<feColorMatrix type="matrix" values="0 0 0 0 0.278431 0 0 0 0 0.0235294 0 0 0 0 1 0 0 0 1 0"/>
<feBlend mode="normal" in2="BackgroundImageFix" result="effect1_dropShadow_34_740"/>
<feBlend mode="normal" in="SourceGraphic" in2="effect1_dropShadow_34_740" result="shape"/>
</filter>
<filter id="filter5_d_34_740" x="141.998" y="115.433" width="2931.78" height="757.435" filterUnits="userSpaceOnUse" color-interpolation-filters="sRGB">
<feFlood flood-opacity="0" result="BackgroundImageFix"/>
<feColorMatrix in="SourceAlpha" type="matrix" values="0 0 0 0 0 0 0 0 0 0 0 0 0 0 0 0 0 0 127 0" result="hardAlpha"/>
<feOffset/>
<feGaussianBlur stdDeviation="5"/>
<feComposite in2="hardAlpha" operator="out"/>
<feColorMatrix type="matrix" values="0 0 0 0 0.0235294 0 0 0 0 0.298039 0 0 0 0 1 0 0 0 1 0"/>
<feBlend mode="normal" in2="BackgroundImageFix" result="effect1_dropShadow_34_740"/>
<feBlend mode="normal" in="SourceGraphic" in2="effect1_dropShadow_34_740" result="shape"/>
</filter>
<filter id="filter6_d_34_740" x="158.401" y="123.408" width="2931.78" height="757.435" filterUnits="userSpaceOnUse" color-interpolation-filters="sRGB">
<feFlood flood-opacity="0" result="BackgroundImageFix"/>
<feColorMatrix in="SourceAlpha" type="matrix" values="0 0 0 0 0 0 0 0 0 0 0 0 0 0 0 0 0 0 127 0" result="hardAlpha"/>
<feOffset/>
<feGaussianBlur stdDeviation="5"/>
<feComposite in2="hardAlpha" operator="out"/>
<feColorMatrix type="matrix" values="0 0 0 0 0.0235294 0 0 0 0 0.298039 0 0 0 0 1 0 0 0 1 0"/>
<feBlend mode="normal" in2="BackgroundImageFix" result="effect1_dropShadow_34_740"/>
<feBlend mode="normal" in="SourceGraphic" in2="effect1_dropShadow_34_740" result="shape"/>
</filter>
<filter id="filter7_d_34_740" x="172.443" y="131.343" width="2931.78" height="757.435" filterUnits="userSpaceOnUse" color-interpolation-filters="sRGB">
<feFlood flood-opacity="0" result="BackgroundImageFix"/>
<feColorMatrix in="SourceAlpha" type="matrix" values="0 0 0 0 0 0 0 0 0 0 0 0 0 0 0 0 0 0 127 0" result="hardAlpha"/>
<feOffset/>
<feGaussianBlur stdDeviation="5"/>
<feComposite in2="hardAlpha" operator="out"/>
<feColorMatrix type="matrix" values="0 0 0 0 0.0235294 0 0 0 0 0.415686 0 0 0 0 1 0 0 0 1 0"/>
<feBlend mode="normal" in2="BackgroundImageFix" result="effect1_dropShadow_34_740"/>
<feBlend mode="normal" in="SourceGraphic" in2="effect1_dropShadow_34_740" result="shape"/>
</filter>
<filter id="filter8_d_34_740" x="184.122" y="139.238" width="2931.78" height="757.435" filterUnits="userSpaceOnUse" color-interpolation-filters="sRGB">
<feFlood flood-opacity="0" result="BackgroundImageFix"/>
<feColorMatrix in="SourceAlpha" type="matrix" values="0 0 0 0 0 0 0 0 0 0 0 0 0 0 0 0 0 0 127 0" result="hardAlpha"/>
<feOffset/>
<feGaussianBlur stdDeviation="5"/>
<feComposite in2="hardAlpha" operator="out"/>
<feColorMatrix type="matrix" values="0 0 0 0 0.0235294 0 0 0 0 0.647059 0 0 0 0 1 0 0 0 1 0"/>
<feBlend mode="normal" in2="BackgroundImageFix" result="effect1_dropShadow_34_740"/>
<feBlend mode="normal" in="SourceGraphic" in2="effect1_dropShadow_34_740" result="shape"/>
</filter>
<filter id="filter9_d_34_740" x="198.163" y="147.173" width="2931.78" height="757.435" filterUnits="userSpaceOnUse" color-interpolation-filters="sRGB">
<feFlood flood-opacity="0" result="BackgroundImageFix"/>
<feColorMatrix in="SourceAlpha" type="matrix" values="0 0 0 0 0 0 0 0 0 0 0 0 0 0 0 0 0 0 127 0" result="hardAlpha"/>
<feOffset/>
<feGaussianBlur stdDeviation="5"/>
<feComposite in2="hardAlpha" operator="out"/>
<feColorMatrix type="matrix" values="0 0 0 0 0.0235294 0 0 0 0 0.764706 0 0 0 0 1 0 0 0 1 0"/>
<feBlend mode="normal" in2="BackgroundImageFix" result="effect1_dropShadow_34_740"/>
<feBlend mode="normal" in="SourceGraphic" in2="effect1_dropShadow_34_740" result="shape"/>
</filter>
<filter id="filter10_d_34_740" x="209.843" y="155.067" width="2931.78" height="757.435" filterUnits="userSpaceOnUse" color-interpolation-filters="sRGB">
<feFlood flood-opacity="0" result="BackgroundImageFix"/>
<feColorMatrix in="SourceAlpha" type="matrix" values="0 0 0 0 0 0 0 0 0 0 0 0 0 0 0 0 0 0 127 0" result="hardAlpha"/>
<feOffset/>
<feGaussianBlur stdDeviation="5"/>
<feComposite in2="hardAlpha" operator="out"/>
<feColorMatrix type="matrix" values="0 0 0 0 0.0235294 0 0 0 0 0.941176 0 0 0 0 1 0 0 0 1 0"/>
<feBlend mode="normal" in2="BackgroundImageFix" result="effect1_dropShadow_34_740"/>
<feBlend mode="normal" in="SourceGraphic" in2="effect1_dropShadow_34_740" result="shape"/>
</filter>
<filter id="filter11_d_34_740" x="74.2582" y="69.644" width="2931.78" height="757.435" filterUnits="userSpaceOnUse" color-interpolation-filters="sRGB">
<feFlood flood-opacity="0" result="BackgroundImageFix"/>
<feColorMatrix in="SourceAlpha" type="matrix" values="0 0 0 0 0 0 0 0 0 0 0 0 0 0 0 0 0 0 127 0" result="hardAlpha"/>
<feOffset/>
<feGaussianBlur stdDeviation="5"/>
<feComposite in2="hardAlpha" operator="out"/>
<feColorMatrix type="matrix" values="0 0 0 0 1 0 0 0 0 0.0235294 0 0 0 0 0.784314 0 0 0 1 0"/>
<feBlend mode="normal" in2="BackgroundImageFix" result="effect1_dropShadow_34_740"/>
<feBlend mode="normal" in="SourceGraphic" in2="effect1_dropShadow_34_740" result="shape"/>
</filter>
</defs>
</svg>
