<svg width="364" height="107" viewBox="0 0 364 107" fill="none" xmlns="http://www.w3.org/2000/svg">
<path d="M0.904 15.296V14.296H-0.0959997V15.296H0.904ZM21.896 15.296H22.896V14.296H21.896V15.296ZM21.896 87.36H20.896V88.36H21.896V87.36ZM60.296 87.36L61.2885 87.4822L61.4266 86.36H60.296V87.36ZM58.248 104V105H59.1325L59.2405 104.122L58.248 104ZM0.904 104H-0.0959997V105H0.904V104ZM0.904 16.296H21.896V14.296H0.904V16.296ZM20.896 15.296V87.36H22.896V15.296H20.896ZM21.896 88.36H60.296V86.36H21.896V88.36ZM59.3035 87.2378L57.2555 103.878L59.2405 104.122L61.2885 87.4822L59.3035 87.2378ZM58.248 103H0.904V105H58.248V103ZM1.904 104V15.296H-0.0959997V104H1.904ZM132.95 89.92L133.818 89.4239L133.818 89.4239L132.95 89.92ZM136.406 92.608L137.359 92.9104L137.648 91.9999L136.752 91.6697L136.406 92.608ZM132.182 105.92L132.078 106.915L132.889 106.999L133.135 106.222L132.182 105.92ZM121.942 103.232L121.473 104.115L121.484 104.121L121.495 104.126L121.942 103.232ZM115.542 96.96L116.414 96.4697L115.713 95.2241L114.783 96.3092L115.542 96.96ZM105.814 103.872L106.178 104.803L106.187 104.8L106.196 104.796L105.814 103.872ZM76.502 100.288L75.8097 101.01L75.8176 101.017L76.502 100.288ZM78.934 67.776L79.5026 68.5987L79.5107 68.593L78.934 67.776ZM112.47 61.632V62.632H113.47V61.632H112.47ZM90.326 49.728L90.4984 50.713L90.508 50.7114L90.5175 50.7095L90.326 49.728ZM80.342 52.288L79.3961 52.6123L79.7202 53.5576L80.6657 53.2342L80.342 52.288ZM75.734 38.848L75.3849 37.9109L74.4722 38.251L74.7881 39.1723L75.734 38.848ZM89.302 35.136L89.4809 36.12L89.4947 36.1172L89.302 35.136ZM107.094 89.792L107.58 90.6662L107.59 90.6602L107.094 89.792ZM112.47 84.288L113.358 84.7483L113.47 84.5318V84.288H112.47ZM112.47 73.152H113.47V72.152H112.47V73.152ZM93.398 89.536L92.7114 90.263L92.7212 90.2723L92.7312 90.2812L93.398 89.536ZM130.926 84.416C130.926 86.9456 131.268 88.9928 132.082 90.4161L133.818 89.4239C133.266 88.4579 132.926 86.8357 132.926 84.416H130.926ZM132.082 90.4161C132.909 91.8631 134.276 92.8891 136.06 93.5463L136.752 91.6697C135.293 91.1323 134.357 90.3663 133.818 89.4239L132.082 90.4161ZM135.453 92.3056L131.229 105.618L133.135 106.222L137.359 92.9104L135.453 92.3056ZM132.286 104.925C128.27 104.507 124.982 103.634 122.389 102.338L121.495 104.126C124.363 105.561 127.902 106.48 132.078 106.915L132.286 104.925ZM122.411 102.349C119.852 100.989 117.857 99.036 116.414 96.4697L114.67 97.4503C116.299 100.345 118.571 102.573 121.473 104.115L122.411 102.349ZM114.783 96.3092C112.333 99.1669 109.224 101.382 105.432 102.948L106.196 104.796C110.255 103.12 113.631 100.726 116.301 97.6108L114.783 96.3092ZM105.45 102.941C101.646 104.429 97.5893 105.176 93.27 105.176V107.176C97.8254 107.176 102.131 106.387 106.178 104.803L105.45 102.941ZM93.27 105.176C86.4679 105.176 81.1434 103.274 77.1864 99.5589L75.8176 101.017C80.2233 105.153 86.0774 107.176 93.27 107.176V105.176ZM77.1942 99.5663C73.2283 95.7622 71.23 90.8694 71.23 84.8H69.23C69.23 91.36 71.4131 96.7924 75.8098 101.01L77.1942 99.5663ZM71.23 84.8C71.23 77.774 73.9828 72.4138 79.5026 68.5986L78.3654 66.9534C72.2799 71.1596 69.23 77.1487 69.23 84.8H71.23ZM79.5107 68.593C85.0815 64.6606 92.9988 62.632 103.382 62.632V60.632C92.7732 60.632 84.3918 62.6994 78.3573 66.959L79.5107 68.593ZM103.382 62.632H112.47V60.632H103.382V62.632ZM113.47 61.632V59.2H111.47V61.632H113.47ZM113.47 59.2C113.47 55.4721 112.264 52.5224 109.725 50.5399C107.234 48.5941 103.613 47.704 99.03 47.704V49.704C103.407 49.704 106.506 50.5633 108.495 52.1161C110.436 53.6323 111.47 55.9305 111.47 59.2H113.47ZM99.03 47.704C96.6369 47.704 93.666 48.0574 90.1345 48.7465L90.5175 50.7095C93.9833 50.0332 96.8151 49.704 99.03 49.704V47.704ZM90.1536 48.743C86.6895 49.3492 83.3109 50.2154 80.0183 51.3418L80.6657 53.2342C83.8585 52.1419 87.1358 51.3015 90.4984 50.713L90.1536 48.743ZM81.2879 51.9637L76.6799 38.5237L74.7881 39.1723L79.3961 52.6123L81.2879 51.9637ZM76.0831 39.7851C80.3784 38.1849 84.844 36.9629 89.4809 36.1199L89.1231 34.1521C84.3733 35.0157 79.7936 36.2685 75.3849 37.9109L76.0831 39.7851ZM89.4947 36.1172C94.2259 35.1879 98.4692 34.728 102.23 34.728V32.728C98.3108 32.728 93.9354 33.2068 89.1093 34.1547L89.4947 36.1172ZM102.23 34.728C112.02 34.728 119.176 36.7154 123.872 40.5209C128.528 44.2938 130.926 49.987 130.926 57.792H132.926C132.926 49.5544 130.374 43.2155 125.132 38.9671C119.929 34.7512 112.238 32.728 102.23 32.728V34.728ZM130.926 57.792V84.416H132.926V57.792H130.926ZM100.182 92.712C102.679 92.712 105.149 92.0167 107.58 90.6662L106.608 88.9178C104.431 90.1273 102.293 90.712 100.182 90.712V92.712ZM107.59 90.6602C110.136 89.2055 112.069 87.2336 113.358 84.7483L111.582 83.8277C110.482 85.9504 108.831 87.6478 106.598 88.9238L107.59 90.6602ZM113.47 84.288V73.152H111.47V84.288H113.47ZM112.47 72.152H107.478V74.152H112.47V72.152ZM107.478 72.152C101.945 72.152 97.6253 73.0107 94.66 74.864C91.6164 76.7663 90.094 79.6588 90.094 83.392H92.094C92.094 80.2985 93.3023 78.0711 95.72 76.56C98.2161 74.9999 102.088 74.152 107.478 74.152V72.152ZM90.094 83.392C90.094 86.2386 90.9273 88.5781 92.7114 90.263L94.0846 88.809C92.7967 87.5926 92.094 85.8361 92.094 83.392H90.094ZM92.7312 90.2812C94.5898 91.9442 97.118 92.712 100.182 92.712V90.712C97.4433 90.712 95.4489 90.0292 94.0648 88.7908L92.7312 90.2812ZM186.916 90.176L187.379 91.0626L187.385 91.059L187.392 91.0553L186.916 90.176ZM188.708 81.6L187.934 82.2332L187.951 82.2534L187.968 82.2727L188.708 81.6ZM184.228 78.912L183.838 79.833L183.854 79.8394L183.869 79.8453L184.228 78.912ZM173.86 75.584L174.123 74.6192L174.114 74.6168L173.86 75.584ZM158.244 68.16L157.573 68.9016L157.583 68.9104L158.244 68.16ZM160.548 39.616L159.946 38.8175L159.94 38.8224L160.548 39.616ZM209.828 42.048L210.656 42.6088L211.197 41.8097L210.418 41.2404L209.828 42.048ZM201.764 53.952L201.239 54.8033L202.055 55.3059L202.592 54.5128L201.764 53.952ZM175.524 49.472L175.058 48.5871L175.048 48.5923L175.038 48.5978L175.524 49.472ZM174.372 56.512L173.629 57.181L173.664 57.2201L173.703 57.2553L174.372 56.512ZM178.98 58.944L178.621 59.8774L178.633 59.8817L178.98 58.944ZM189.22 62.144L188.948 63.1062L188.95 63.1068L189.22 62.144ZM201.124 66.624L200.657 67.5084L200.667 67.5136L201.124 66.624ZM208.42 73.152L209.268 72.622L209.268 72.622L208.42 73.152ZM206.628 95.936L207.39 96.5836L207.39 96.5836L206.628 95.936ZM194.98 103.616L195.311 104.56L195.311 104.56L194.98 103.616ZM161.7 103.488L162.03 102.544L161.7 103.488ZM148.644 95.936L147.896 95.2722L147.239 96.013L147.973 96.6775L148.644 95.936ZM158.756 84.544L159.37 83.7546L158.63 83.1793L158.008 83.8802L158.756 84.544ZM178.724 92.712C182.3 92.712 185.214 92.1921 187.379 91.0626L186.453 89.2894C184.693 90.2079 182.146 90.712 178.724 90.712V92.712ZM187.392 91.0553C188.535 90.4365 189.444 89.6455 190.065 88.662C190.69 87.6739 190.988 86.5457 190.988 85.312H188.988C188.988 86.2116 188.774 86.9608 188.375 87.594C187.972 88.2318 187.345 88.8062 186.44 89.2967L187.392 91.0553ZM190.988 85.312C190.988 83.5824 190.502 82.0872 189.448 80.9273L187.968 82.2727C188.62 82.9902 188.988 83.9696 188.988 85.312H190.988ZM189.482 80.9668C188.541 79.8171 186.84 78.8451 184.587 77.9787L183.869 79.8453C186.054 80.6856 187.339 81.5055 187.934 82.2332L189.482 80.9668ZM184.618 77.991C182.335 77.0252 178.825 75.9017 174.123 74.6192L173.597 76.5488C178.281 77.8263 181.684 78.9215 183.838 79.833L184.618 77.991ZM174.114 74.6168C167.372 72.8469 162.33 70.4266 158.905 67.4096L157.583 68.9104C161.326 72.2081 166.695 74.7371 173.606 76.5512L174.114 74.6168ZM158.915 67.4185C155.576 64.3972 153.868 60.2487 153.868 54.848H151.868C151.868 60.7113 153.744 65.4374 157.573 68.9015L158.915 67.4185ZM153.868 54.848C153.868 48.9424 156.273 44.1536 161.156 40.4096L159.94 38.8224C154.583 42.9291 151.868 48.2949 151.868 54.848H153.868ZM161.15 40.4144C166.122 36.6653 173.134 34.728 182.308 34.728V32.728C172.879 32.728 165.385 34.716 159.946 38.8176L161.15 40.4144ZM182.308 34.728C192.88 34.728 201.839 37.4514 209.238 42.8556L210.418 41.2404C202.628 35.5513 193.24 32.728 182.308 32.728V34.728ZM209 41.4871L200.936 53.3911L202.592 54.5128L210.656 42.6088L209 41.4871ZM202.289 53.1007C195.927 49.1792 189.476 47.192 182.948 47.192V49.192C189.05 49.192 195.142 51.0448 201.239 54.8033L202.289 53.1007ZM182.948 47.192C179.57 47.192 176.897 47.6191 175.058 48.5871L175.99 50.3569C177.393 49.6183 179.67 49.192 182.948 49.192V47.192ZM175.038 48.5978C174.137 49.0988 173.419 49.7626 172.931 50.6019C172.444 51.4401 172.22 52.3982 172.22 53.44H174.22C174.22 52.6898 174.38 52.0905 174.661 51.6061C174.941 51.1227 175.375 50.6985 176.01 50.3462L175.038 48.5978ZM172.22 53.44C172.22 54.8707 172.688 56.136 173.629 57.181L175.115 55.843C174.52 55.1814 174.22 54.3986 174.22 53.44H172.22ZM173.703 57.2553C174.701 58.1532 176.384 59.0169 178.621 59.8773L179.339 58.0107C177.139 57.1644 175.75 56.4068 175.041 55.7687L173.703 57.2553ZM178.633 59.8817C180.974 60.7491 184.418 61.8242 188.948 63.1062L189.492 61.1818C184.977 59.9038 181.594 58.8456 179.327 58.0062L178.633 59.8817ZM188.95 63.1068C193.773 64.4608 197.669 65.9312 200.657 67.5084L201.591 65.7396C198.435 64.0741 194.395 62.5579 189.49 61.1812L188.95 63.1068ZM200.667 67.5136C203.681 69.0612 205.971 71.1196 207.572 73.682L209.268 72.622C207.456 69.7231 204.882 67.4295 201.581 65.7344L200.667 67.5136ZM207.572 73.682C209.152 76.2099 209.98 79.5093 209.98 83.648H211.98C211.98 79.2534 211.101 75.5554 209.268 72.622L207.572 73.682ZM209.98 83.648C209.98 88.2065 208.603 92.0685 205.866 95.2884L207.39 96.5836C210.456 92.9769 211.98 88.6468 211.98 83.648H209.98ZM205.866 95.2884C203.096 98.5473 199.371 101.015 194.649 102.672L195.311 104.56C200.317 102.803 204.357 100.151 207.39 96.5836L205.866 95.2884ZM194.649 102.672C189.905 104.337 184.643 105.176 178.852 105.176V107.176C184.837 107.176 190.327 106.308 195.311 104.56L194.649 102.672ZM178.852 105.176C172.632 105.176 167.028 104.293 162.03 102.544L161.37 104.432C166.612 106.267 172.443 107.176 178.852 107.176V105.176ZM162.03 102.544C157.021 100.791 152.789 98.3373 149.315 95.1945L147.973 96.6775C151.667 100.02 156.139 102.601 161.37 104.432L162.03 102.544ZM149.392 96.5998L159.504 85.2078L158.008 83.8802L147.896 95.2722L149.392 96.5998ZM158.142 85.3334C164.446 90.2361 171.314 92.712 178.724 92.712V90.712C171.798 90.712 165.354 88.4093 159.37 83.7546L158.142 85.3334ZM263.666 90.176L264.129 91.0626L264.135 91.059L264.142 91.0553L263.666 90.176ZM265.458 81.6L264.684 82.2332L264.701 82.2534L264.718 82.2727L265.458 81.6ZM260.978 78.912L260.588 79.833L260.604 79.8394L260.619 79.8453L260.978 78.912ZM250.61 75.584L250.873 74.6192L250.864 74.6168L250.61 75.584ZM234.994 68.16L234.323 68.9016L234.333 68.9104L234.994 68.16ZM237.298 39.616L236.696 38.8175L236.69 38.8224L237.298 39.616ZM286.578 42.048L287.406 42.6088L287.947 41.8097L287.168 41.2404L286.578 42.048ZM278.514 53.952L277.989 54.8033L278.805 55.3059L279.342 54.5128L278.514 53.952ZM252.274 49.472L251.808 48.5871L251.798 48.5923L251.788 48.5978L252.274 49.472ZM251.122 56.512L250.379 57.181L250.414 57.2201L250.453 57.2553L251.122 56.512ZM255.73 58.944L255.371 59.8774L255.383 59.8817L255.73 58.944ZM265.97 62.144L265.698 63.1062L265.7 63.1068L265.97 62.144ZM277.874 66.624L277.407 67.5084L277.417 67.5136L277.874 66.624ZM285.17 73.152L286.018 72.622L286.018 72.622L285.17 73.152ZM283.378 95.936L284.14 96.5836L284.14 96.5836L283.378 95.936ZM271.73 103.616L272.061 104.56L272.061 104.56L271.73 103.616ZM238.45 103.488L238.78 102.544L238.45 103.488ZM225.394 95.936L224.646 95.2722L223.989 96.013L224.723 96.6775L225.394 95.936ZM235.506 84.544L236.12 83.7546L235.38 83.1793L234.758 83.8802L235.506 84.544ZM255.474 92.712C259.05 92.712 261.964 92.1921 264.129 91.0626L263.203 89.2894C261.443 90.2079 258.896 90.712 255.474 90.712V92.712ZM264.142 91.0553C265.285 90.4365 266.194 89.6455 266.815 88.662C267.44 87.6739 267.738 86.5457 267.738 85.312H265.738C265.738 86.2116 265.524 86.9608 265.125 87.594C264.722 88.2318 264.095 88.8062 263.19 89.2967L264.142 91.0553ZM267.738 85.312C267.738 83.5824 267.252 82.0872 266.198 80.9273L264.718 82.2727C265.37 82.9902 265.738 83.9696 265.738 85.312H267.738ZM266.232 80.9668C265.291 79.8171 263.59 78.8451 261.337 77.9787L260.619 79.8453C262.804 80.6856 264.089 81.5055 264.684 82.2332L266.232 80.9668ZM261.368 77.991C259.085 77.0252 255.575 75.9017 250.873 74.6192L250.347 76.5488C255.031 77.8263 258.434 78.9215 260.588 79.833L261.368 77.991ZM250.864 74.6168C244.122 72.8469 239.08 70.4266 235.655 67.4096L234.333 68.9104C238.076 72.2081 243.445 74.7371 250.356 76.5512L250.864 74.6168ZM235.665 67.4185C232.326 64.3972 230.618 60.2487 230.618 54.848H228.618C228.618 60.7113 230.494 65.4374 234.323 68.9015L235.665 67.4185ZM230.618 54.848C230.618 48.9424 233.023 44.1536 237.906 40.4096L236.69 38.8224C231.333 42.9291 228.618 48.2949 228.618 54.848H230.618ZM237.9 40.4144C242.872 36.6653 249.884 34.728 259.058 34.728V32.728C249.629 32.728 242.135 34.716 236.696 38.8176L237.9 40.4144ZM259.058 34.728C269.63 34.728 278.589 37.4514 285.988 42.8556L287.168 41.2404C279.378 35.5513 269.99 32.728 259.058 32.728V34.728ZM285.75 41.4871L277.686 53.3911L279.342 54.5128L287.406 42.6088L285.75 41.4871ZM279.039 53.1007C272.677 49.1792 266.226 47.192 259.698 47.192V49.192C265.8 49.192 271.892 51.0448 277.989 54.8033L279.039 53.1007ZM259.698 47.192C256.32 47.192 253.647 47.6191 251.808 48.5871L252.74 50.3569C254.143 49.6183 256.42 49.192 259.698 49.192V47.192ZM251.788 48.5978C250.887 49.0988 250.169 49.7626 249.681 50.6019C249.194 51.4401 248.97 52.3982 248.97 53.44H250.97C250.97 52.6898 251.13 52.0905 251.411 51.6061C251.691 51.1227 252.125 50.6985 252.76 50.3462L251.788 48.5978ZM248.97 53.44C248.97 54.8707 249.438 56.136 250.379 57.181L251.865 55.843C251.27 55.1814 250.97 54.3986 250.97 53.44H248.97ZM250.453 57.2553C251.451 58.1532 253.134 59.0169 255.371 59.8773L256.089 58.0107C253.889 57.1644 252.5 56.4068 251.791 55.7687L250.453 57.2553ZM255.383 59.8817C257.724 60.7491 261.168 61.8242 265.698 63.1062L266.242 61.1818C261.727 59.9038 258.344 58.8456 256.077 58.0062L255.383 59.8817ZM265.7 63.1068C270.523 64.4608 274.419 65.9312 277.407 67.5084L278.341 65.7396C275.185 64.0741 271.145 62.5579 266.24 61.1812L265.7 63.1068ZM277.417 67.5136C280.431 69.0612 282.721 71.1196 284.322 73.682L286.018 72.622C284.206 69.7231 281.632 67.4295 278.331 65.7344L277.417 67.5136ZM284.322 73.682C285.902 76.2099 286.73 79.5093 286.73 83.648H288.73C288.73 79.2534 287.851 75.5554 286.018 72.622L284.322 73.682ZM286.73 83.648C286.73 88.2065 285.353 92.0685 282.616 95.2884L284.14 96.5836C287.206 92.9769 288.73 88.6468 288.73 83.648H286.73ZM282.616 95.2884C279.846 98.5473 276.121 101.015 271.399 102.672L272.061 104.56C277.067 102.803 281.107 100.151 284.14 96.5836L282.616 95.2884ZM271.399 102.672C266.655 104.337 261.393 105.176 255.602 105.176V107.176C261.587 107.176 267.077 106.308 272.061 104.56L271.399 102.672ZM255.602 105.176C249.382 105.176 243.778 104.293 238.78 102.544L238.12 104.432C243.362 106.267 249.193 107.176 255.602 107.176V105.176ZM238.78 102.544C233.771 100.791 229.539 98.3373 226.065 95.1945L224.723 96.6775C228.417 100.02 232.889 102.601 238.12 104.432L238.78 102.544ZM226.142 96.5998L236.254 85.2078L234.758 83.8802L224.646 95.2722L226.142 96.5998ZM234.892 85.3334C241.196 90.2361 248.064 92.712 255.474 92.712V90.712C248.548 90.712 242.104 88.4093 236.12 83.7546L234.892 85.3334ZM342.848 3.77599L342.141 4.4831L342.148 4.49003L342.155 4.49683L342.848 3.77599ZM342.848 20.032L343.541 20.7528L343.541 20.7528L342.848 20.032ZM325.568 20.032L324.861 20.7391L324.874 20.7527L324.889 20.7658L325.568 20.032ZM325.568 3.77599L326.261 4.49683L326.262 4.49631L325.568 3.77599ZM346.432 90.176H345.432V91.176H346.432V90.176ZM363.84 90.176H364.84V89.176H363.84V90.176ZM363.84 104V105H364.84V104H363.84ZM307.008 104H306.008V105H307.008V104ZM307.008 90.176V89.176H306.008V90.176H307.008ZM326.208 90.176V91.176H327.208V90.176H326.208ZM326.208 49.856H327.208V48.856H326.208V49.856ZM307.648 49.856H306.648V50.856H307.648V49.856ZM307.648 36.032V35.032H306.648V36.032H307.648ZM346.432 36.032H347.432V35.032H346.432V36.032ZM334.272 1.448C337.539 1.448 340.132 2.47434 342.141 4.4831L343.555 3.06889C341.127 0.640324 338.002 -0.552002 334.272 -0.552002V1.448ZM342.155 4.49683C344.166 6.43063 345.176 8.85306 345.176 11.84H347.176C347.176 8.3416 345.967 5.38803 343.541 3.05516L342.155 4.49683ZM345.176 11.84C345.176 14.9205 344.16 17.3827 342.155 19.3112L343.541 20.7528C345.973 18.4146 347.176 15.4155 347.176 11.84H345.176ZM342.155 19.3112C340.148 21.2405 337.55 22.232 334.272 22.232V24.232C337.991 24.232 341.11 23.0901 343.541 20.7528L342.155 19.3112ZM334.272 22.232C330.994 22.232 328.345 21.2404 326.247 19.2982L324.889 20.7658C327.399 23.0903 330.553 24.232 334.272 24.232V22.232ZM326.275 19.3249C324.251 17.3007 323.24 14.8274 323.24 11.84H321.24C321.24 15.338 322.448 18.326 324.861 20.7391L326.275 19.3249ZM323.24 11.84C323.24 8.85306 324.25 6.43063 326.261 4.49683L324.875 3.05516C322.449 5.38803 321.24 8.3416 321.24 11.84H323.24ZM326.262 4.49631C328.361 2.47469 331.005 1.448 334.272 1.448V-0.552002C330.541 -0.552002 327.383 0.639965 324.874 3.05567L326.262 4.49631ZM346.432 91.176H363.84V89.176H346.432V91.176ZM362.84 90.176V104H364.84V90.176H362.84ZM363.84 103H307.008V105H363.84V103ZM308.008 104V90.176H306.008V104H308.008ZM307.008 91.176H326.208V89.176H307.008V91.176ZM327.208 90.176V49.856H325.208V90.176H327.208ZM326.208 48.856H307.648V50.856H326.208V48.856ZM308.648 49.856V36.032H306.648V49.856H308.648ZM307.648 37.032H346.432V35.032H307.648V37.032ZM345.432 36.032V90.176H347.432V36.032H345.432Z" fill="white"/>
</svg>
