<svg width="834" height="107" viewBox="0 0 834 107" fill="none" xmlns="http://www.w3.org/2000/svg">
<path d="M46.768 104V105H47.768V104H46.768ZM25.776 104H24.776V105H25.776V104ZM25.776 31.424H26.776V30.424H25.776V31.424ZM0.816 31.424H-0.184V32.424H0.816V31.424ZM0.816 15.296V14.296H-0.184V15.296H0.816ZM72.624 15.296L73.616 15.422L73.759 14.296H72.624V15.296ZM70.576 31.424V32.424H71.4571L71.568 31.55L70.576 31.424ZM46.768 31.424V30.424H45.768V31.424H46.768ZM46.768 103H25.776V105H46.768V103ZM26.776 104V31.424H24.776V104H26.776ZM25.776 30.424H0.816V32.424H25.776V30.424ZM1.816 31.424V15.296H-0.184V31.424H1.816ZM0.816 16.296H72.624V14.296H0.816V16.296ZM71.632 15.17L69.584 31.298L71.568 31.55L73.616 15.422L71.632 15.17ZM70.576 30.424H46.768V32.424H70.576V30.424ZM45.768 31.424V104H47.768V31.424H45.768ZM121.598 3.77599L120.891 4.4831L120.898 4.49003L120.905 4.49683L121.598 3.77599ZM121.598 20.032L122.291 20.7528L122.291 20.7528L121.598 20.032ZM104.318 20.032L103.611 20.7391L103.624 20.7527L103.639 20.7658L104.318 20.032ZM104.318 3.77599L105.011 4.49683L105.012 4.49631L104.318 3.77599ZM125.182 90.176H124.182V91.176H125.182V90.176ZM142.59 90.176H143.59V89.176H142.59V90.176ZM142.59 104V105H143.59V104H142.59ZM85.758 104H84.758V105H85.758V104ZM85.758 90.176V89.176H84.758V90.176H85.758ZM104.958 90.176V91.176H105.958V90.176H104.958ZM104.958 49.856H105.958V48.856H104.958V49.856ZM86.398 49.856H85.398V50.856H86.398V49.856ZM86.398 36.032V35.032H85.398V36.032H86.398ZM125.182 36.032H126.182V35.032H125.182V36.032ZM113.022 1.448C116.289 1.448 118.882 2.47434 120.891 4.4831L122.305 3.06889C119.877 0.640324 116.752 -0.552002 113.022 -0.552002V1.448ZM120.905 4.49683C122.916 6.43063 123.926 8.85306 123.926 11.84H125.926C125.926 8.3416 124.717 5.38803 122.291 3.05516L120.905 4.49683ZM123.926 11.84C123.926 14.9205 122.91 17.3827 120.905 19.3112L122.291 20.7528C124.723 18.4146 125.926 15.4155 125.926 11.84H123.926ZM120.905 19.3112C118.898 21.2405 116.3 22.232 113.022 22.232V24.232C116.741 24.232 119.86 23.0901 122.291 20.7528L120.905 19.3112ZM113.022 22.232C109.744 22.232 107.095 21.2404 104.997 19.2982L103.639 20.7658C106.149 23.0903 109.303 24.232 113.022 24.232V22.232ZM105.025 19.3249C103.001 17.3007 101.99 14.8274 101.99 11.84H99.99C99.99 15.338 101.198 18.326 103.611 20.7391L105.025 19.3249ZM101.99 11.84C101.99 8.85306 103 6.43063 105.011 4.49683L103.625 3.05516C101.199 5.38803 99.99 8.3416 99.99 11.84H101.99ZM105.012 4.49631C107.111 2.47469 109.755 1.448 113.022 1.448V-0.552002C109.291 -0.552002 106.133 0.639965 103.624 3.05567L105.012 4.49631ZM125.182 91.176H142.59V89.176H125.182V91.176ZM141.59 90.176V104H143.59V90.176H141.59ZM142.59 103H85.758V105H142.59V103ZM86.758 104V90.176H84.758V104H86.758ZM85.758 91.176H104.958V89.176H85.758V91.176ZM105.958 90.176V49.856H103.958V90.176H105.958ZM104.958 48.856H86.398V50.856H104.958V48.856ZM87.398 49.856V36.032H85.398V49.856H87.398ZM86.398 37.032H125.182V35.032H86.398V37.032ZM124.182 36.032V90.176H126.182V36.032H124.182ZM221.388 38.592L220.563 39.1567L220.571 39.1692L220.58 39.1815L221.388 38.592ZM224.844 104V105H225.844V104H224.844ZM207.564 104H206.564V105H207.564V104ZM206.796 50.88L205.886 51.2938L205.901 51.3269L205.918 51.3588L206.796 50.88ZM197.196 53.952L196.404 53.3412L196.196 53.6111V53.952H197.196ZM197.196 104V105H198.196V104H197.196ZM182.86 104H181.86V105H182.86V104ZM182.092 50.88L181.182 51.2938L181.197 51.3269L181.214 51.3588L182.092 50.88ZM172.492 53.952L171.7 53.3412L171.492 53.6111V53.952H172.492ZM172.492 104V105H173.492V104H172.492ZM154.956 104H153.956V105H154.956V104ZM154.956 36.032V35.032H153.956V36.032H154.956ZM169.676 36.032L170.654 35.8212L170.483 35.032H169.676V36.032ZM171.084 42.56L170.106 42.7708L170.58 44.9659L171.895 43.1455L171.084 42.56ZM177.612 35.904L178.151 36.7463L178.159 36.741L177.612 35.904ZM191.948 35.776L191.342 36.5714L191.354 36.5808L191.367 36.5897L191.948 35.776ZM195.788 41.792L194.825 42.0627L195.331 43.8615L196.547 42.4428L195.788 41.792ZM210.764 34.728C215.387 34.728 218.576 36.2524 220.563 39.1567L222.213 38.0273C219.763 34.4463 215.869 32.728 210.764 32.728V34.728ZM220.58 39.1815C222.695 42.0797 223.844 46.852 223.844 53.696H225.844C225.844 46.716 224.689 41.419 222.196 38.0025L220.58 39.1815ZM223.844 53.696V104H225.844V53.696H223.844ZM224.844 103H207.564V105H224.844V103ZM208.564 104V56H206.564V104H208.564ZM208.564 56C208.564 53.5238 208.319 51.5842 207.674 50.4011L205.918 51.3588C206.297 52.0531 206.564 53.5268 206.564 56H208.564ZM207.706 50.4662C207.409 49.8129 206.945 49.2927 206.318 48.9478C205.704 48.6103 204.993 48.472 204.236 48.472V50.472C204.759 50.472 205.114 50.5683 205.354 50.7002C205.58 50.8246 205.756 51.0085 205.886 51.2938L207.706 50.4662ZM204.236 48.472C201.392 48.472 198.787 50.2525 196.404 53.3412L197.988 54.5628C200.213 51.6782 202.301 50.472 204.236 50.472V48.472ZM196.196 53.952V104H198.196V53.952H196.196ZM197.196 103H182.86V105H197.196V103ZM183.86 104V56H181.86V104H183.86ZM183.86 56C183.86 53.5238 183.615 51.5842 182.97 50.4011L181.214 51.3588C181.593 52.0531 181.86 53.5268 181.86 56H183.86ZM183.002 50.4662C182.705 49.8129 182.241 49.2927 181.614 48.9478C181 48.6103 180.289 48.472 179.532 48.472V50.472C180.055 50.472 180.41 50.5683 180.65 50.7002C180.876 50.8246 181.052 51.0085 181.182 51.2938L183.002 50.4662ZM179.532 48.472C176.688 48.472 174.083 50.2525 171.7 53.3412L173.284 54.5628C175.509 51.6782 177.597 50.472 179.532 50.472V48.472ZM171.492 53.952V104H173.492V53.952H171.492ZM172.492 103H154.956V105H172.492V103ZM155.956 104V36.032H153.956V104H155.956ZM154.956 37.032H169.676V35.032H154.956V37.032ZM168.698 36.2428L170.106 42.7708L172.062 42.3492L170.654 35.8212L168.698 36.2428ZM171.895 43.1455C174.073 40.1297 176.163 38.0189 178.151 36.7463L177.073 35.0617C174.795 36.5197 172.533 38.8463 170.273 41.9745L171.895 43.1455ZM178.159 36.741C180.2 35.4067 182.566 34.728 185.292 34.728V32.728C182.215 32.728 179.461 33.5 177.065 35.067L178.159 36.741ZM185.292 34.728C187.758 34.728 189.753 35.3609 191.342 36.5714L192.554 34.9806C190.559 33.4604 188.117 32.728 185.292 32.728V34.728ZM191.367 36.5897C192.926 37.7034 194.101 39.4872 194.825 42.0627L196.751 41.5213C195.939 38.6354 194.554 36.4086 192.529 34.9623L191.367 36.5897ZM196.547 42.4428C201.029 37.2137 205.766 34.728 210.764 34.728V32.728C205.01 32.728 199.763 35.6183 195.029 41.1412L196.547 42.4428ZM290.842 43.584L290.092 44.246L290.102 44.2562L290.842 43.584ZM290.97 96.576L290.229 95.9043L290.229 95.9043L290.97 96.576ZM242.33 96.704L241.589 97.3757L241.594 97.3806L242.33 96.704ZM237.466 51.008L236.566 50.5721L236.563 50.5781L237.466 51.008ZM248.858 38.336L249.375 39.1922L249.379 39.1896L248.858 38.336ZM257.434 53.824L258.295 54.332L258.301 54.3225L257.434 53.824ZM257.434 86.336L256.567 86.8345L256.573 86.844L257.434 86.336ZM275.866 86.208L274.999 85.7095L274.999 85.7095L275.866 86.208ZM275.866 53.824L274.999 54.3225L275.005 54.332L275.866 53.824ZM266.65 34.728C276.745 34.728 284.514 37.9289 290.092 44.2459L291.592 42.9221C285.565 36.0977 277.206 32.728 266.65 32.728V34.728ZM290.102 44.2562C295.783 50.5137 298.674 58.9982 298.674 69.824H300.674C300.674 58.6338 297.677 49.625 291.582 42.9118L290.102 44.2562ZM298.674 69.824C298.674 81.0924 295.817 89.7411 290.229 95.9043L291.711 97.2477C297.728 90.6109 300.674 81.4249 300.674 69.824H298.674ZM290.229 95.9043C284.655 102.053 276.841 105.176 266.65 105.176V107.176C277.28 107.176 285.68 103.899 291.711 97.2477L290.229 95.9043ZM266.65 105.176C256.454 105.176 248.64 102.093 243.066 96.0274L241.594 97.3806C247.625 103.945 256.024 107.176 266.65 107.176V105.176ZM243.071 96.0323C237.483 89.8691 234.626 81.2204 234.626 69.952H232.626C232.626 81.5529 235.572 90.7389 241.589 97.3757L243.071 96.0323ZM234.626 69.952C234.626 62.8156 235.885 56.6536 238.369 51.4379L236.563 50.5781C233.927 56.1144 232.626 62.5818 232.626 69.952H234.626ZM238.366 51.4439C240.931 46.1477 244.6 42.0737 249.375 39.1922L248.341 37.4798C243.218 40.5716 239.291 44.9456 236.566 50.5721L238.366 51.4439ZM249.379 39.1896C254.233 36.2276 259.978 34.728 266.65 34.728V32.728C259.669 32.728 253.552 34.3004 248.337 37.4824L249.379 39.1896ZM266.65 47.704C262.138 47.704 258.721 49.5791 256.567 53.3255L258.301 54.3225C260.072 51.2423 262.799 49.704 266.65 49.704V47.704ZM256.573 53.316C254.468 56.8839 253.49 62.4865 253.49 69.952H255.49C255.49 62.5695 256.474 57.4201 258.295 54.332L256.573 53.316ZM253.49 69.952C253.49 77.5038 254.469 83.1856 256.567 86.8345L258.301 85.8375C256.474 82.6597 255.49 77.4188 255.49 69.952H253.49ZM256.573 86.844C258.732 90.5061 262.15 92.328 266.65 92.328V90.328C262.787 90.328 260.061 88.8219 258.295 85.828L256.573 86.844ZM266.65 92.328C271.162 92.328 274.579 90.4529 276.733 86.7065L274.999 85.7095C273.228 88.7897 270.501 90.328 266.65 90.328V92.328ZM276.733 86.7065C278.831 83.0576 279.81 77.3758 279.81 69.824H277.81C277.81 77.2908 276.826 82.5317 274.999 85.7095L276.733 86.7065ZM279.81 69.824C279.81 62.4413 278.831 56.8828 276.727 53.316L275.005 54.332C276.826 57.4212 277.81 62.5294 277.81 69.824H279.81ZM276.733 53.3255C274.579 49.5791 271.162 47.704 266.65 47.704V49.704C270.501 49.704 273.228 51.2423 274.999 54.3225L276.733 53.3255ZM349.416 90.176L349.879 91.0626L349.885 91.059L349.892 91.0553L349.416 90.176ZM351.208 81.6L350.434 82.2332L350.451 82.2534L350.468 82.2727L351.208 81.6ZM346.728 78.912L346.338 79.833L346.354 79.8394L346.369 79.8453L346.728 78.912ZM336.36 75.584L336.623 74.6192L336.614 74.6168L336.36 75.584ZM320.744 68.16L320.073 68.9016L320.083 68.9104L320.744 68.16ZM323.048 39.616L322.446 38.8175L322.44 38.8224L323.048 39.616ZM372.328 42.048L373.156 42.6088L373.697 41.8097L372.918 41.2404L372.328 42.048ZM364.264 53.952L363.739 54.8033L364.555 55.3059L365.092 54.5128L364.264 53.952ZM338.024 49.472L337.558 48.5871L337.548 48.5923L337.538 48.5978L338.024 49.472ZM336.872 56.512L336.129 57.181L336.164 57.2201L336.203 57.2553L336.872 56.512ZM341.48 58.944L341.121 59.8774L341.133 59.8817L341.48 58.944ZM351.72 62.144L351.448 63.1062L351.45 63.1068L351.72 62.144ZM363.624 66.624L363.157 67.5084L363.167 67.5136L363.624 66.624ZM370.92 73.152L371.768 72.622L371.768 72.622L370.92 73.152ZM369.128 95.936L369.89 96.5836L369.89 96.5836L369.128 95.936ZM357.48 103.616L357.811 104.56L357.811 104.56L357.48 103.616ZM324.2 103.488L324.53 102.544L324.2 103.488ZM311.144 95.936L310.396 95.2722L309.739 96.013L310.473 96.6775L311.144 95.936ZM321.256 84.544L321.87 83.7546L321.13 83.1793L320.508 83.8802L321.256 84.544ZM341.224 92.712C344.8 92.712 347.714 92.1921 349.879 91.0626L348.953 89.2894C347.193 90.2079 344.646 90.712 341.224 90.712V92.712ZM349.892 91.0553C351.035 90.4365 351.944 89.6455 352.565 88.662C353.19 87.6739 353.488 86.5457 353.488 85.312H351.488C351.488 86.2116 351.274 86.9608 350.875 87.594C350.472 88.2318 349.845 88.8062 348.94 89.2967L349.892 91.0553ZM353.488 85.312C353.488 83.5824 353.002 82.0872 351.948 80.9273L350.468 82.2727C351.12 82.9902 351.488 83.9696 351.488 85.312H353.488ZM351.982 80.9668C351.041 79.8171 349.34 78.8451 347.087 77.9787L346.369 79.8453C348.554 80.6856 349.839 81.5055 350.434 82.2332L351.982 80.9668ZM347.118 77.991C344.835 77.0252 341.325 75.9017 336.623 74.6192L336.097 76.5488C340.781 77.8263 344.184 78.9215 346.338 79.833L347.118 77.991ZM336.614 74.6168C329.872 72.8469 324.83 70.4266 321.405 67.4096L320.083 68.9104C323.826 72.2081 329.195 74.7371 336.106 76.5512L336.614 74.6168ZM321.415 67.4185C318.076 64.3972 316.368 60.2487 316.368 54.848H314.368C314.368 60.7113 316.244 65.4374 320.073 68.9015L321.415 67.4185ZM316.368 54.848C316.368 48.9424 318.773 44.1536 323.656 40.4096L322.44 38.8224C317.083 42.9291 314.368 48.2949 314.368 54.848H316.368ZM323.65 40.4144C328.622 36.6653 335.634 34.728 344.808 34.728V32.728C335.379 32.728 327.885 34.716 322.446 38.8176L323.65 40.4144ZM344.808 34.728C355.38 34.728 364.339 37.4514 371.738 42.8556L372.918 41.2404C365.128 35.5513 355.74 32.728 344.808 32.728V34.728ZM371.5 41.4871L363.436 53.3911L365.092 54.5128L373.156 42.6088L371.5 41.4871ZM364.789 53.1007C358.427 49.1792 351.976 47.192 345.448 47.192V49.192C351.55 49.192 357.642 51.0448 363.739 54.8033L364.789 53.1007ZM345.448 47.192C342.07 47.192 339.397 47.6191 337.558 48.5871L338.49 50.3569C339.893 49.6183 342.17 49.192 345.448 49.192V47.192ZM337.538 48.5978C336.637 49.0988 335.919 49.7626 335.431 50.6019C334.944 51.4401 334.72 52.3982 334.72 53.44H336.72C336.72 52.6898 336.88 52.0905 337.161 51.6061C337.441 51.1227 337.875 50.6985 338.51 50.3462L337.538 48.5978ZM334.72 53.44C334.72 54.8707 335.188 56.136 336.129 57.181L337.615 55.843C337.02 55.1814 336.72 54.3986 336.72 53.44H334.72ZM336.203 57.2553C337.201 58.1532 338.884 59.0169 341.121 59.8773L341.839 58.0107C339.639 57.1644 338.25 56.4068 337.541 55.7687L336.203 57.2553ZM341.133 59.8817C343.474 60.7491 346.918 61.8242 351.448 63.1062L351.992 61.1818C347.477 59.9038 344.094 58.8456 341.827 58.0062L341.133 59.8817ZM351.45 63.1068C356.273 64.4608 360.169 65.9312 363.157 67.5084L364.091 65.7396C360.935 64.0741 356.895 62.5579 351.99 61.1812L351.45 63.1068ZM363.167 67.5136C366.181 69.0612 368.471 71.1196 370.072 73.682L371.768 72.622C369.956 69.7231 367.382 67.4295 364.081 65.7344L363.167 67.5136ZM370.072 73.682C371.652 76.2099 372.48 79.5093 372.48 83.648H374.48C374.48 79.2534 373.601 75.5554 371.768 72.622L370.072 73.682ZM372.48 83.648C372.48 88.2065 371.103 92.0685 368.366 95.2884L369.89 96.5836C372.956 92.9769 374.48 88.6468 374.48 83.648H372.48ZM368.366 95.2884C365.596 98.5473 361.871 101.015 357.149 102.672L357.811 104.56C362.817 102.803 366.857 100.151 369.89 96.5836L368.366 95.2884ZM357.149 102.672C352.405 104.337 347.143 105.176 341.352 105.176V107.176C347.337 107.176 352.827 106.308 357.811 104.56L357.149 102.672ZM341.352 105.176C335.132 105.176 329.528 104.293 324.53 102.544L323.87 104.432C329.112 106.267 334.943 107.176 341.352 107.176V105.176ZM324.53 102.544C319.521 100.791 315.289 98.3373 311.815 95.1945L310.473 96.6775C314.167 100.02 318.639 102.601 323.87 104.432L324.53 102.544ZM311.892 96.5998L322.004 85.2078L320.508 83.8802L310.396 95.2722L311.892 96.5998ZM320.642 85.3334C326.946 90.2361 333.814 92.712 341.224 92.712V90.712C334.298 90.712 327.854 88.4093 321.87 83.7546L320.642 85.3334ZM410.934 104V105H411.934V104H410.934ZM390.71 104H389.71V105H390.71V104ZM390.71 9.02399L390.603 8.02973L389.71 8.12582V9.02399H390.71ZM410.934 6.84799H411.934V5.73463L410.827 5.85373L410.934 6.84799ZM432.822 66.112L432.02 65.5147L431.608 66.0684L431.979 66.6502L432.822 66.112ZM457.014 104V105H458.839L457.857 103.462L457.014 104ZM433.974 104L433.116 104.513L433.407 105H433.974V104ZM411.702 66.752L410.894 66.1628L410.504 66.6974L410.844 67.2652L411.702 66.752ZM434.102 36.032V35.032H433.594L433.294 35.4428L434.102 36.032ZM455.222 36.032L456.024 36.6293L457.213 35.032H455.222V36.032ZM410.934 103H390.71V105H410.934V103ZM391.71 104V9.02399H389.71V104H391.71ZM390.817 10.0183L411.041 7.84225L410.827 5.85373L390.603 8.02973L390.817 10.0183ZM409.934 6.84799V104H411.934V6.84799H409.934ZM431.979 66.6502L456.171 104.538L457.857 103.462L433.665 65.5738L431.979 66.6502ZM457.014 103H433.974V105H457.014V103ZM434.832 103.487L412.56 66.2388L410.844 67.2652L433.116 104.513L434.832 103.487ZM412.51 67.3412L434.91 36.6212L433.294 35.4428L410.894 66.1628L412.51 67.3412ZM434.102 37.032H455.222V35.032H434.102V37.032ZM454.42 35.4347L432.02 65.5147L433.624 66.7093L456.024 36.6293L454.42 35.4347ZM525.7 89.92L526.568 89.4239L526.568 89.4239L525.7 89.92ZM529.156 92.608L530.109 92.9104L530.398 91.9999L529.502 91.6697L529.156 92.608ZM524.932 105.92L524.828 106.915L525.639 106.999L525.885 106.222L524.932 105.92ZM514.692 103.232L514.223 104.115L514.234 104.121L514.245 104.126L514.692 103.232ZM508.292 96.96L509.164 96.4697L508.463 95.2241L507.533 96.3092L508.292 96.96ZM498.564 103.872L498.928 104.803L498.937 104.8L498.946 104.796L498.564 103.872ZM469.252 100.288L468.56 101.01L468.568 101.017L469.252 100.288ZM471.684 67.776L472.253 68.5987L472.261 68.593L471.684 67.776ZM505.22 61.632V62.632H506.22V61.632H505.22ZM483.076 49.728L483.248 50.713L483.258 50.7114L483.268 50.7095L483.076 49.728ZM473.092 52.288L472.146 52.6123L472.47 53.5576L473.416 53.2342L473.092 52.288ZM468.484 38.848L468.135 37.9109L467.222 38.251L467.538 39.1723L468.484 38.848ZM482.052 35.136L482.231 36.12L482.245 36.1172L482.052 35.136ZM499.844 89.792L500.33 90.6662L500.34 90.6602L499.844 89.792ZM505.22 84.288L506.108 84.7483L506.22 84.5318V84.288H505.22ZM505.22 73.152H506.22V72.152H505.22V73.152ZM486.148 89.536L485.461 90.263L485.471 90.2723L485.481 90.2812L486.148 89.536ZM523.676 84.416C523.676 86.9456 524.018 88.9928 524.832 90.4161L526.568 89.4239C526.016 88.4579 525.676 86.8357 525.676 84.416H523.676ZM524.832 90.4161C525.659 91.8631 527.026 92.8891 528.81 93.5463L529.502 91.6697C528.043 91.1323 527.107 90.3663 526.568 89.4239L524.832 90.4161ZM528.203 92.3056L523.979 105.618L525.885 106.222L530.109 92.9104L528.203 92.3056ZM525.036 104.925C521.02 104.507 517.732 103.634 515.139 102.338L514.245 104.126C517.113 105.561 520.652 106.48 524.828 106.915L525.036 104.925ZM515.161 102.349C512.602 100.989 510.607 99.036 509.164 96.4697L507.42 97.4503C509.049 100.345 511.321 102.573 514.223 104.115L515.161 102.349ZM507.533 96.3092C505.083 99.1669 501.974 101.382 498.182 102.948L498.946 104.796C503.005 103.12 506.381 100.726 509.051 97.6108L507.533 96.3092ZM498.2 102.941C494.396 104.429 490.339 105.176 486.02 105.176V107.176C490.575 107.176 494.881 106.387 498.928 104.803L498.2 102.941ZM486.02 105.176C479.218 105.176 473.893 103.274 469.936 99.5589L468.568 101.017C472.973 105.153 478.827 107.176 486.02 107.176V105.176ZM469.944 99.5663C465.978 95.7622 463.98 90.8694 463.98 84.8H461.98C461.98 91.36 464.163 96.7924 468.56 101.01L469.944 99.5663ZM463.98 84.8C463.98 77.774 466.733 72.4138 472.253 68.5986L471.115 66.9534C465.03 71.1596 461.98 77.1487 461.98 84.8H463.98ZM472.261 68.593C477.832 64.6606 485.749 62.632 496.132 62.632V60.632C485.523 60.632 477.142 62.6994 471.107 66.959L472.261 68.593ZM496.132 62.632H505.22V60.632H496.132V62.632ZM506.22 61.632V59.2H504.22V61.632H506.22ZM506.22 59.2C506.22 55.4721 505.014 52.5224 502.475 50.5399C499.984 48.5941 496.363 47.704 491.78 47.704V49.704C496.157 49.704 499.256 50.5633 501.245 52.1161C503.186 53.6323 504.22 55.9305 504.22 59.2H506.22ZM491.78 47.704C489.387 47.704 486.416 48.0574 482.884 48.7465L483.268 50.7095C486.733 50.0332 489.565 49.704 491.78 49.704V47.704ZM482.904 48.743C479.439 49.3492 476.061 50.2154 472.768 51.3418L473.416 53.2342C476.608 52.1419 479.886 51.3015 483.248 50.713L482.904 48.743ZM474.038 51.9637L469.43 38.5237L467.538 39.1723L472.146 52.6123L474.038 51.9637ZM468.833 39.7851C473.128 38.1849 477.594 36.9629 482.231 36.1199L481.873 34.1521C477.123 35.0157 472.544 36.2685 468.135 37.9109L468.833 39.7851ZM482.245 36.1172C486.976 35.1879 491.219 34.728 494.98 34.728V32.728C491.061 32.728 486.685 33.2068 481.859 34.1547L482.245 36.1172ZM494.98 34.728C504.77 34.728 511.926 36.7154 516.622 40.5209C521.278 44.2938 523.676 49.987 523.676 57.792H525.676C525.676 49.5544 523.124 43.2155 517.882 38.9671C512.679 34.7512 504.988 32.728 494.98 32.728V34.728ZM523.676 57.792V84.416H525.676V57.792H523.676ZM492.932 92.712C495.429 92.712 497.899 92.0167 500.33 90.6662L499.358 88.9178C497.181 90.1273 495.043 90.712 492.932 90.712V92.712ZM500.34 90.6602C502.886 89.2055 504.819 87.2336 506.108 84.7483L504.332 83.8277C503.232 85.9504 501.581 87.6478 499.348 88.9238L500.34 90.6602ZM506.22 84.288V73.152H504.22V84.288H506.22ZM505.22 72.152H500.228V74.152H505.22V72.152ZM500.228 72.152C494.695 72.152 490.375 73.0107 487.41 74.864C484.366 76.7663 482.844 79.6588 482.844 83.392H484.844C484.844 80.2985 486.052 78.0711 488.47 76.56C490.966 74.9999 494.838 74.152 500.228 74.152V72.152ZM482.844 83.392C482.844 86.2386 483.677 88.5781 485.461 90.263L486.835 88.809C485.547 87.5926 484.844 85.8361 484.844 83.392H482.844ZM485.481 90.2812C487.34 91.9442 489.868 92.712 492.932 92.712V90.712C490.193 90.712 488.199 90.0292 486.815 88.7908L485.481 90.2812ZM582.098 3.77599L581.391 4.4831L581.398 4.49003L581.405 4.49683L582.098 3.77599ZM582.098 20.032L582.791 20.7528L582.791 20.7528L582.098 20.032ZM564.818 20.032L564.111 20.7391L564.124 20.7527L564.139 20.7658L564.818 20.032ZM564.818 3.77599L565.511 4.49683L565.512 4.49631L564.818 3.77599ZM585.682 90.176H584.682V91.176H585.682V90.176ZM603.09 90.176H604.09V89.176H603.09V90.176ZM603.09 104V105H604.09V104H603.09ZM546.258 104H545.258V105H546.258V104ZM546.258 90.176V89.176H545.258V90.176H546.258ZM565.458 90.176V91.176H566.458V90.176H565.458ZM565.458 49.856H566.458V48.856H565.458V49.856ZM546.898 49.856H545.898V50.856H546.898V49.856ZM546.898 36.032V35.032H545.898V36.032H546.898ZM585.682 36.032H586.682V35.032H585.682V36.032ZM573.522 1.448C576.789 1.448 579.382 2.47434 581.391 4.4831L582.805 3.06889C580.377 0.640324 577.252 -0.552002 573.522 -0.552002V1.448ZM581.405 4.49683C583.416 6.43063 584.426 8.85306 584.426 11.84H586.426C586.426 8.3416 585.217 5.38803 582.791 3.05516L581.405 4.49683ZM584.426 11.84C584.426 14.9205 583.41 17.3827 581.405 19.3112L582.791 20.7528C585.223 18.4146 586.426 15.4155 586.426 11.84H584.426ZM581.405 19.3112C579.398 21.2405 576.8 22.232 573.522 22.232V24.232C577.241 24.232 580.36 23.0901 582.791 20.7528L581.405 19.3112ZM573.522 22.232C570.244 22.232 567.595 21.2404 565.497 19.2982L564.139 20.7658C566.649 23.0903 569.803 24.232 573.522 24.232V22.232ZM565.525 19.3249C563.501 17.3007 562.49 14.8274 562.49 11.84H560.49C560.49 15.338 561.698 18.326 564.111 20.7391L565.525 19.3249ZM562.49 11.84C562.49 8.85306 563.5 6.43063 565.511 4.49683L564.125 3.05516C561.699 5.38803 560.49 8.3416 560.49 11.84H562.49ZM565.512 4.49631C567.611 2.47469 570.255 1.448 573.522 1.448V-0.552002C569.791 -0.552002 566.633 0.639965 564.124 3.05567L565.512 4.49631ZM585.682 91.176H603.09V89.176H585.682V91.176ZM602.09 90.176V104H604.09V90.176H602.09ZM603.09 103H546.258V105H603.09V103ZM547.258 104V90.176H545.258V104H547.258ZM546.258 91.176H565.458V89.176H546.258V91.176ZM566.458 90.176V49.856H564.458V90.176H566.458ZM565.458 48.856H546.898V50.856H565.458V48.856ZM547.898 49.856V36.032H545.898V49.856H547.898ZM546.898 37.032H585.682V35.032H546.898V37.032ZM584.682 36.032V90.176H586.682V36.032H584.682ZM620.96 36.032V35.032H619.96V36.032H620.96ZM638.624 36.032L639.608 35.8545L639.46 35.032H638.624V36.032ZM640.032 43.84L639.048 44.0175L639.41 46.0259L640.775 44.509L640.032 43.84ZM649.632 36.288L650.07 37.187L650.079 37.1824L649.632 36.288ZM674.848 39.104L674.106 39.775L674.115 39.7844L674.848 39.104ZM679.84 104V105H680.84V104H679.84ZM659.616 104H658.616V105H659.616V104ZM658.208 51.136L659.073 50.635L659.073 50.635L658.208 51.136ZM647.072 50.752L647.635 51.5783L647.643 51.5729L647.072 50.752ZM641.184 56.512L640.403 55.8873L640.184 56.1612V56.512H641.184ZM641.184 104V105H642.184V104H641.184ZM620.96 104H619.96V105H620.96V104ZM620.96 37.032H638.624V35.032H620.96V37.032ZM637.64 36.2095L639.048 44.0175L641.016 43.6625L639.608 35.8545L637.64 36.2095ZM640.775 44.509C643.781 41.169 646.882 38.7402 650.07 37.187L649.194 35.389C645.726 37.0784 642.427 39.6843 639.289 43.171L640.775 44.509ZM650.079 37.1824C653.338 35.553 657.022 34.728 661.152 34.728V32.728C656.749 32.728 652.753 33.6096 649.185 35.3936L650.079 37.1824ZM661.152 34.728C666.824 34.728 671.094 36.4453 674.106 39.7749L675.59 38.4331C672.117 34.5947 667.256 32.728 661.152 32.728V34.728ZM674.115 39.7844C677.224 43.1321 678.84 47.8523 678.84 54.08H680.84C680.84 47.5077 679.128 42.2439 675.581 38.4235L674.115 39.7844ZM678.84 54.08V104H680.84V54.08H678.84ZM679.84 103H659.616V105H679.84V103ZM660.616 104V59.968H658.616V104H660.616ZM660.616 59.968C660.616 55.6971 660.158 52.5088 659.073 50.635L657.343 51.637C658.135 53.0059 658.616 55.7056 658.616 59.968H660.616ZM659.073 50.635C657.899 48.6063 655.789 47.704 653.088 47.704V49.704C655.337 49.704 656.64 50.4231 657.343 51.637L659.073 50.635ZM653.088 47.704C650.803 47.704 648.602 48.4692 646.501 49.9311L647.643 51.5729C649.467 50.3041 651.277 49.704 653.088 49.704V47.704ZM646.509 49.9258C644.522 51.2805 642.488 53.2809 640.403 55.8873L641.965 57.1367C643.976 54.6231 645.868 52.7835 647.635 51.5782L646.509 49.9258ZM640.184 56.512V104H642.184V56.512H640.184ZM641.184 103H620.96V105H641.184V103ZM621.96 104V36.032H619.96V104H621.96ZM715.246 75.968V74.968H714.114L714.254 76.091L715.246 75.968ZM749.038 85.824L749.845 85.233L749.287 84.4718L748.495 84.9844L749.038 85.824ZM757.102 96.832L757.759 97.5858L758.452 96.9821L757.909 96.241L757.102 96.832ZM745.198 103.744L745.53 104.687L745.538 104.685L745.545 104.682L745.198 103.744ZM710.638 101.696L710.136 102.561L710.146 102.567L710.638 101.696ZM698.606 89.024L697.706 89.4599L697.71 89.4684L697.714 89.4769L698.606 89.024ZM698.478 51.648L697.575 51.2175L697.573 51.2236L698.478 51.648ZM709.87 38.592L710.408 39.4351L710.411 39.4327L709.87 38.592ZM744.686 37.952L744.178 38.8136L744.19 38.8202L744.686 37.952ZM755.694 49.984L754.794 50.4196L754.798 50.4283L754.803 50.437L755.694 49.984ZM759.278 75.968V76.968H760.161L760.27 76.092L759.278 75.968ZM718.958 51.392L719.724 52.0346L719.729 52.0286L719.734 52.0226L718.958 51.392ZM714.99 63.68L713.993 63.6033L713.91 64.68H714.99V63.68ZM739.95 63.68V64.68H740.966L740.95 63.6644L739.95 63.68ZM714.254 76.091C714.911 81.3964 716.661 85.518 719.615 88.3107C722.58 91.1131 726.628 92.456 731.63 92.456V90.456C726.989 90.456 723.486 89.2176 720.989 86.8573C718.482 84.4874 716.861 80.8649 716.238 75.845L714.254 76.091ZM731.63 92.456C737.66 92.456 743.648 90.5027 749.581 86.6636L748.495 84.9844C742.823 88.6547 737.206 90.456 731.63 90.456V92.456ZM748.231 86.415L756.295 97.423L757.909 96.241L749.845 85.233L748.231 86.415ZM756.445 96.0782C753.218 98.8915 749.358 101.137 744.851 102.806L745.545 104.682C750.254 102.938 754.33 100.575 757.759 97.5858L756.445 96.0782ZM744.866 102.801C740.378 104.38 735.415 105.176 729.966 105.176V107.176C735.611 107.176 740.802 106.351 745.53 104.687L744.866 102.801ZM729.966 105.176C722.501 105.176 716.237 103.708 711.13 100.825L710.146 102.567C715.62 105.657 722.242 107.176 729.966 107.176V105.176ZM711.14 100.831C706.014 97.8546 702.14 93.7725 699.498 88.5711L697.714 89.4769C700.534 95.0275 704.681 99.3934 710.136 102.561L711.14 100.831ZM699.506 88.5881C696.937 83.2851 695.638 77.1242 695.638 70.08H693.638C693.638 77.3718 694.984 83.8402 697.706 89.4599L699.506 88.5881ZM695.638 70.08C695.638 63.3806 696.893 57.3844 699.383 52.0724L697.573 51.2236C694.943 56.8342 693.638 63.126 693.638 70.08H695.638ZM699.381 52.0785C701.949 46.6925 705.624 42.4869 710.408 39.4351L709.332 37.7489C704.217 41.0118 700.297 45.5102 697.575 51.2175L699.381 52.0785ZM710.411 39.4327C715.261 36.3093 721.04 34.728 727.79 34.728V32.728C720.716 32.728 714.548 34.3894 709.329 37.7513L710.411 39.4327ZM727.79 34.728C734.127 34.728 739.578 36.1025 744.178 38.8135L745.194 37.0905C740.237 34.1695 734.423 32.728 727.79 32.728V34.728ZM744.19 38.8202C748.781 41.4438 752.315 45.2976 754.794 50.4196L756.594 49.5484C753.953 44.0891 750.148 39.9215 745.182 37.0838L744.19 38.8202ZM754.803 50.437C757.361 55.4721 758.662 61.5387 758.662 68.672H760.662C760.662 61.2986 759.317 54.9066 756.585 49.5309L754.803 50.437ZM758.662 68.672C758.662 71.4603 758.535 73.8488 758.286 75.844L760.27 76.092C760.533 73.9912 760.662 71.5157 760.662 68.672H758.662ZM759.278 74.968H715.246V76.968H759.278V74.968ZM727.79 46.296C723.834 46.296 720.6 47.7857 718.182 50.7614L719.734 52.0226C721.754 49.537 724.407 48.296 727.79 48.296V46.296ZM718.192 50.7494C715.779 53.6256 714.427 57.9654 713.993 63.6033L715.987 63.7567C716.407 58.3013 717.699 54.449 719.724 52.0346L718.192 50.7494ZM714.99 64.68H739.95V62.68H714.99V64.68ZM740.95 63.6644C740.863 58.1105 739.792 53.769 737.585 50.796C735.337 47.7666 732.015 46.296 727.79 46.296V48.296C731.501 48.296 734.174 49.5561 735.979 51.988C737.826 54.4763 738.866 58.3269 738.95 63.6956L740.95 63.6644ZM774.46 36.032V35.032H773.46V36.032H774.46ZM792.124 36.032L793.108 35.8545L792.96 35.032H792.124V36.032ZM793.532 43.84L792.548 44.0175L792.91 46.0259L794.275 44.509L793.532 43.84ZM803.132 36.288L803.57 37.187L803.579 37.1824L803.132 36.288ZM828.348 39.104L827.606 39.775L827.615 39.7844L828.348 39.104ZM833.34 104V105H834.34V104H833.34ZM813.116 104H812.116V105H813.116V104ZM811.708 51.136L812.573 50.635L812.573 50.635L811.708 51.136ZM800.572 50.752L801.135 51.5783L801.143 51.5729L800.572 50.752ZM794.684 56.512L793.903 55.8873L793.684 56.1612V56.512H794.684ZM794.684 104V105H795.684V104H794.684ZM774.46 104H773.46V105H774.46V104ZM774.46 37.032H792.124V35.032H774.46V37.032ZM791.14 36.2095L792.548 44.0175L794.516 43.6625L793.108 35.8545L791.14 36.2095ZM794.275 44.509C797.281 41.169 800.382 38.7402 803.57 37.187L802.694 35.389C799.226 37.0784 795.927 39.6843 792.789 43.171L794.275 44.509ZM803.579 37.1824C806.838 35.553 810.522 34.728 814.652 34.728V32.728C810.249 32.728 806.253 33.6096 802.685 35.3936L803.579 37.1824ZM814.652 34.728C820.324 34.728 824.594 36.4453 827.606 39.7749L829.09 38.4331C825.617 34.5947 820.756 32.728 814.652 32.728V34.728ZM827.615 39.7844C830.724 43.1321 832.34 47.8523 832.34 54.08H834.34C834.34 47.5077 832.628 42.2439 829.081 38.4235L827.615 39.7844ZM832.34 54.08V104H834.34V54.08H832.34ZM833.34 103H813.116V105H833.34V103ZM814.116 104V59.968H812.116V104H814.116ZM814.116 59.968C814.116 55.6971 813.658 52.5088 812.573 50.635L810.843 51.637C811.635 53.0059 812.116 55.7056 812.116 59.968H814.116ZM812.573 50.635C811.399 48.6063 809.289 47.704 806.588 47.704V49.704C808.837 49.704 810.14 50.4231 810.843 51.637L812.573 50.635ZM806.588 47.704C804.303 47.704 802.102 48.4692 800.001 49.9311L801.143 51.5729C802.967 50.3041 804.777 49.704 806.588 49.704V47.704ZM800.009 49.9258C798.022 51.2805 795.988 53.2809 793.903 55.8873L795.465 57.1367C797.476 54.6231 799.368 52.7835 801.135 51.5782L800.009 49.9258ZM793.684 56.512V104H795.684V56.512H793.684ZM794.684 103H774.46V105H794.684V103ZM775.46 104V36.032H773.46V104H775.46Z" fill="white"/>
</svg>
